<svg xmlns="http://www.w3.org/2000/svg" width="265.000000pt" height="244.000000pt" version="1.0" viewBox="0 0 265.000000 244.000000"><path d="M196.3 3.5c-13 4-24.6 16.3-28.7 30.4-2 7-2 19.2 0 26.2 2.4 8.2 9.3 20.6 20.3 36.3 22.3 31.9 30.4 49.4 31.7 69.1.8 10.8-1.4 20.5-7.3 32.5-3.9 7.9-6.2 11-13.7 18.6-7.7 7.7-10.5 9.8-18.6 13.7-5.5 2.7-12.6 5.3-16.8 6.1-4.1.8-7.6 1.7-7.9 1.9-1.1 1.1 10.5 2.7 19.5 2.7 40.2 0 78.5-31.5 86.6-71.2 2-9.6 2-17.2.1-26.3-4.1-19.1-17.4-35.8-51.6-64.6-15.9-13.4-24-21.4-26.3-26.3-3.9-8.3.6-20.7 9.3-25.5 8.4-4.6 22.9-3.7 36.6 2.4 3.2 1.4 6 2.3 6.3 2.1.2-.3-.9-2.2-2.6-4.4-1.7-2.1-4-6.2-5.1-9.1-4.2-11.1-11-16.2-21.7-16-3.2 0-7.8.6-10.1 1.4z"/><path d="M67.8 59.1c-13.6.9-23.6 3.4-32.8 8-14.7 7.4-19 17-12.9 29 3.9 7.8 20.8 20 32.3 23.4 6.1 1.8 5.7 3.5-.7 3.5-8.1 0-22.3 2.6-29.9 5.6-7.9 3-15.3 9.2-17.9 14.9-5.9 12.8 1.3 31 18.8 47.6 22 21 47.2 31.1 84.6 34.1 38.6 3 71.7-8.3 81.3-27.8 2.4-4.8 2.6-6.3 2.2-13.2-.6-10-4.6-17.9-13.1-25.8-10.7-9.9-22-14.2-39.8-15.1-22.8-1.1-39.5 5.7-47.6 19.5-2 3.3-2.7 6.2-3.1 11.7-.2 4 0 8 .6 9 .8 1.5 1.1 1.2 2.2-2.1 2.1-6.4 4.9-11.3 9-15.8 18.5-20 66.1-12.6 68.7 10.7 1.2 10.4-5.1 17.6-19.5 22.3-8.2 2.7-9.6 2.9-26.2 2.9-21.5 0-33.6-2.4-48.5-9.5-17.1-8.2-27.4-20.4-27.5-32.7 0-6.6 1-9.3 5.5-13.7 8-8 20.4-11.8 46.5-14.1 9.6-.9 17.9-1.7 18.3-1.8.5-.1-4.2-2.2-10.5-4.6-26.1-10-42.3-19.2-50.7-28.7-3.6-4.1-4.1-5.3-4.1-9.5s.5-5.3 3.5-8.3c5.7-5.8 12-7.1 32-7 15.2 0 18 .3 26.8 2.7 24.6 6.8 39.1 18.8 36.3 30.2-1.5 6-8.8 6.9-16.1 1.9l-3.8-2.5.6 3.7c1.5 9 9.9 15.5 20.2 15.5 11.1 0 16.4-5.4 16.5-16.8 0-14.5-11-28.2-29.7-36.9-16.8-7.9-46.4-12.2-71.5-10.3z"/></svg>