<svg xmlns="http://www.w3.org/2000/svg" width="400" height="400" viewBox="0, 0, 400,400"><g fill-rule="evenodd"><path fill="#fbfbfb" d="M187.6 63.416c-12.718 1.283-26.456 4.28-33.8 7.374-.44.185-2.06.818-3.6 1.407-11.576 4.425-31.222 15.73-35.8 20.601-.11.117-1.19 1.016-2.4 1.998-4.956 4.022-13.182 12.248-17.204 17.204-.982 1.21-1.881 2.29-1.998 2.4-.117.11-1.489 1.91-3.05 4-27.708 37.114-34.594 87.261-17.937 130.63 3.642 9.482 14.263 29.139 16.95 31.37.133.11 1.051 1.28 2.04 2.6.989 1.32 1.979 2.604 2.199 2.853.22.249 1.03 1.229 1.8 2.177 4.373 5.387 15.084 15.98 18.54 18.337.473.323.95.688 1.06.811.11.123 1.28 1.033 2.6 2.022 1.32.989 2.49 1.904 2.6 2.033 1.38 1.619 13.612 8.817 21 12.356 3.3 1.581 6.313 3.04 6.695 3.243.382.202.879.368 1.104.368.225 0 1.173.348 2.105.774.933.425 3.856 1.486 6.496 2.358 20.064 6.625 41.174 8.458 62.8 5.455 4.558-.633 6.063-.915 11.8-2.217 4.748-1.078 14.352-4.005 17.2-5.243.55-.239 1.36-.566 1.8-.727 7.702-2.82 27.822-13.884 29.8-16.386.11-.139.83-.691 1.6-1.228 1.776-1.236 1.853-1.297 6.385-5.051 4.848-4.015 12.535-11.702 16.55-16.55 3.754-4.532 3.815-4.609 5.051-6.385.537-.77 1.089-1.49 1.228-1.6 2.216-1.751 12.601-20.292 15.628-27.9.86-2.162 1.181-2.955 1.539-3.8 1.27-3.001 4.139-12.48 5.236-17.3 1.156-5.08 1.213-5.353 1.604-7.742.568-3.466-.311-3.258 13.744-3.258 16.309 0 18.342-.511 23.853-5.995 8.961-8.916 7.527-24.494-2.878-31.267-5.084-3.309-4.962-3.288-19.934-3.451-14.452-.157-14.249-.124-14.62-2.427-1.239-7.707-5.13-21.754-7.412-26.756-.426-.932-.774-1.88-.774-2.105 0-.225-.166-.722-.368-1.104-.203-.382-1.662-3.395-3.243-6.695-3.539-7.388-10.737-19.62-12.356-21-.129-.11-1.044-1.28-2.033-2.6-.989-1.32-1.899-2.49-2.022-2.6-.123-.11-.488-.587-.811-1.06-2.357-3.456-12.95-14.167-18.337-18.54-.948-.77-1.928-1.58-2.177-1.8-.249-.22-1.533-1.21-2.853-2.199-1.32-.989-2.49-1.907-2.6-2.04-1.716-2.066-17.61-10.999-27-15.174-18.722-8.326-44.536-12.316-65.8-10.171m46.645 103.437c7.144 1.799 5.749 11.547-1.651 11.547-3.328 0-4.971 1.483-4.985 4.5l-.009 1.9 2.7.01c6.085.021 8.3 1.56 8.3 5.765 0 4.231-2.075 5.825-7.58 5.825h-3.42v15.551c0 17.08-.04 17.402-2.404 19.391-2.487 2.093-5.644 2.258-8.456.442-2.937-1.896-2.904-1.69-3.055-19.484l-.135-15.9-.875-.001c-6.194-.011-6.624-10.272-.479-11.425l1.314-.246.277-3.864c.815-11.363 8.923-16.915 20.458-14.011m-96.138 17.327c8.935 2.135 13.737 7.894 10.692 12.822-2.009 3.25-5.782 3.763-9.81 1.333-7.417-4.474-14.607-2.951-17.667 3.742-5.96 13.034 6.156 24.282 18.059 16.765 3.987-2.519 7.152-2.375 9.381.426 4.846 6.088-5.25 14.318-17.562 14.318-29.454 0-34.789-41.171-6.4-49.393 2.408-.697 10.411-.705 13.307-.013m45.493-.018c8.183 1.345 12.859 4.811 15.342 11.371 1.308 3.456 1.535 32.322.27 34.371-2.797 4.53-9.482 4.046-12.239-.888-.403-.72-.565-.666-2.775.917-10.185 7.293-25.228 2.953-27.764-8.01-3.056-13.213 10.274-22.216 26.861-18.14 3.561.875 3.678.828 3.311-1.347-.956-5.658-8.508-7.937-18.123-5.469-6.004 1.542-10.633-3.002-8.024-7.877 2.086-3.898 13.988-6.433 23.141-4.928m89.182.028c6.254 1.665 14.818 9.014 14.818 12.717 0 .293.149.704.33.913 1.18 1.357 2.275 8.22 1.661 10.412-1.395 4.983-2.76 5.363-19.291 5.366-14.586.002-13.797-.179-12.203 2.806 3.447 6.458 11.711 7.651 19.365 2.797 7.281-4.617 12.592 4.692 5.57 9.763-11.372 8.212-30.443 4.748-36.39-6.609-.275-.525-.691-1.315-.924-1.755a24.717 24.717 0 0 1-.871-1.9c-.246-.605-.616-1.505-.822-2-1.48-3.551-1.469-10.701.025-15.9.879-3.056 2.155-5.66 3.951-8.059 5.52-7.374 15.832-10.932 24.781-8.551M263 195.583c-2.797 1.269-5.266 4.457-5.976 7.717l-.239 1.1h9.807c5.949 0 9.808-.15 9.808-.381 0-.372-.366-1.349-1.441-3.847-1.885-4.381-7.593-6.571-11.959-4.589m-87.617 16.359c-6.048 1.082-7.954 8.087-2.91 10.696 5.78 2.989 14.127-1.106 14.127-6.931v-2.618l-1.5-.524c-1.856-.647-7.541-1.012-9.717-.623"/><path fill="#ec3c4c" d="M179.003.275c-1.978.087-3.769.331-3.98.542-.211.211-1.607.383-3.103.383-1.547 0-2.72.173-2.72.4 0 .222-1.067.4-2.4.4s-2.4.178-2.4.4c0 .22-.99.4-2.2.4-1.21 0-2.2.18-2.2.4 0 .22-.72.4-1.6.4-.88 0-1.6.18-1.6.4 0 .22-.799.4-1.776.4s-1.888.18-2.024.4c-.136.22-.957.4-1.824.4-.867 0-1.576.18-1.576.4 0 .22-.63.4-1.4.4-.77 0-1.4.18-1.4.4 0 .22-.63.4-1.4.4-.77 0-1.4.18-1.4.4 0 .22-.63.4-1.4.4-.77 0-1.4.18-1.4.4 0 .22-.51.4-1.133.4-.624 0-1.257.124-1.408.275-.152.151-.587.307-.967.346-.67.07-6.266 1.872-7.892 2.542-2.386.984-3.267 1.364-3.895 1.684-.382.194-.967.353-1.3.353-.333 0-.605.18-.605.4 0 .22-.439.4-.976.4-.537 0-1.088.18-1.224.4-.136.22-.597.4-1.024.4-.427 0-.776.18-.776.4 0 .22-.36.4-.8.4-.44 0-.8.18-.8.4 0 .22-.36.4-.8.4-.44 0-.8.18-.8.4 0 .22-.45.4-1 .4s-1 .18-1 .4c0 .22-.253.4-.562.4-.666 0-3.979 1.668-4.171 2.1-.074.165-.479.3-.9.3-.422 0-.767.18-.767.4 0 .22-.36.4-.8.4-.44 0-.8.18-.8.4 0 .22-.36.4-.8.4-.44 0-.8.18-.8.4 0 .22-.236.4-.525.4-.288 0-.911.36-1.383.8-.472.44-1.055.8-1.295.8-.6 0-2.837 1.183-3.51 1.856-.303.303-.717.449-.919.324-.203-.125-.368-.037-.368.196a.428.428 0 0 1-.428.424c-.235 0-1.213.54-2.172 1.2-.959.66-1.897 1.2-2.084 1.2-.187 0-.599.36-.916.8-.317.44-.857.8-1.2.8-.343 0-.883.36-1.2.8-.317.44-.857.8-1.2.8-.343 0-.883.36-1.2.8-.317.44-.809.8-1.092.8-.283 0-1.08.54-1.771 1.2-.691.66-1.459 1.2-1.708 1.2-.249 0-.712.36-1.029.8-.317.44-.825.8-1.128.8-.303 0-1.028.508-1.612 1.129-.583.621-1.6 1.472-2.26 1.891-.66.418-1.344.99-1.52 1.27-.176.281-.883.802-1.572 1.158-.689.356-2.109 1.526-3.155 2.6-1.045 1.073-2.079 1.952-2.297 1.952-.217 0-2.308 1.89-4.647 4.2-2.338 2.31-4.145 4.2-4.016 4.2.129 0-.176.426-.679.946-.503.521-.979.891-1.058.824-.23-.199-8.456 8.251-8.456 8.686 0 .218-.879 1.252-1.952 2.297-1.074 1.046-2.244 2.466-2.6 3.155-.356.689-.877 1.396-1.158 1.572-.28.176-.852.86-1.27 1.52-.419.66-1.27 1.677-1.891 2.26-.621.584-1.129 1.309-1.129 1.612 0 .303-.36.811-.8 1.128-.44.317-.8.78-.8 1.029 0 .249-.54 1.017-1.2 1.708-.66.691-1.2 1.488-1.2 1.771 0 .283-.36.775-.8 1.092-.44.317-.8.857-.8 1.2 0 .343-.36.883-.8 1.2-.44.317-.8.857-.8 1.2 0 .343-.36.883-.8 1.2-.44.317-.8.729-.8.916 0 .187-.54 1.125-1.2 2.084-.66.959-1.2 1.937-1.2 2.172a.428.428 0 0 1-.424.428c-.233 0-.321.165-.196.368.125.202-.021.616-.324.919-.673.673-1.856 2.91-1.856 3.51 0 .24-.36.823-.8 1.295-.44.472-.8 1.095-.8 1.383 0 .289-.18.525-.4.525-.22 0-.4.36-.4.8 0 .44-.18.8-.4.8-.22 0-.4.36-.4.8 0 .44-.18.8-.4.8-.22 0-.4.345-.4.767 0 .421-.135.826-.3.9-.432.192-2.1 3.505-2.1 4.171 0 .309-.18.562-.4.562-.22 0-.4.45-.4 1s-.18 1-.4 1c-.22 0-.4.36-.4.8 0 .44-.18.8-.4.8-.22 0-.4.36-.4.8 0 .44-.18.8-.4.8-.22 0-.4.349-.4.776 0 .427-.18.888-.4 1.024-.22.136-.4.687-.4 1.224 0 .537-.18.976-.4.976-.22 0-.4.272-.4.605 0 .333-.159.918-.353 1.3a23.472 23.472 0 0 0-.747 1.695c-.216.55-.589 1.45-.83 2-.685 1.57-2.569 7.325-2.649 8.092-.039.38-.195.815-.346.967-.151.151-.275.784-.275 1.408 0 .623-.18 1.133-.4 1.133-.22 0-.4.63-.4 1.4 0 .77-.18 1.4-.4 1.4-.22 0-.4.63-.4 1.4 0 .77-.18 1.4-.4 1.4-.22 0-.4.63-.4 1.4 0 .77-.18 1.4-.4 1.4-.22 0-.4.709-.4 1.576 0 .867-.18 1.688-.4 1.824-.22.136-.4 1.047-.4 2.024 0 .977-.18 1.776-.4 1.776-.22 0-.4.72-.4 1.6 0 .88-.18 1.6-.4 1.6-.22 0-.4.99-.4 2.2 0 1.21-.18 2.2-.4 2.2-.222 0-.4 1.067-.4 2.4s-.178 2.4-.4 2.4c-.227 0-.4 1.173-.4 2.72 0 1.643-.198 2.918-.5 3.22-.729.729-.729 48.991 0 49.72.302.302.5 1.577.5 3.22 0 1.547.173 2.72.4 2.72.222 0 .4 1.067.4 2.4s.178 2.4.4 2.4c.22 0 .4.99.4 2.2 0 1.21.18 2.2.4 2.2.22 0 .4.72.4 1.6 0 .88.18 1.6.4 1.6.22 0 .4.799.4 1.776s.18 1.888.4 2.024c.22.136.4.957.4 1.824 0 .867.18 1.576.4 1.576.22 0 .4.63.4 1.4 0 .77.18 1.4.4 1.4.22 0 .4.63.4 1.4 0 .77.18 1.4.4 1.4.22 0 .4.63.4 1.4 0 .77.18 1.4.4 1.4.22 0 .4.51.4 1.133 0 .624.124 1.257.275 1.408.151.152.307.587.346.967.07.67 1.872 6.266 2.542 7.892.984 2.386 1.364 3.267 1.684 3.895.194.382.353.967.353 1.3 0 .333.18.605.4.605.22 0 .4.439.4.976 0 .537.18 1.088.4 1.224.22.136.4.597.4 1.024 0 .427.18.776.4.776.22 0 .4.36.4.8 0 .44.18.8.4.8.22 0 .4.36.4.8 0 .44.18.8.4.8.22 0 .4.45.4 1s.18 1 .4 1c.22 0 .4.253.4.562 0 .666 1.668 3.979 2.1 4.171.165.074.3.479.3.9 0 .422.18.767.4.767.22 0 .4.36.4.8 0 .44.18.8.4.8.22 0 .4.36.4.8 0 .44.18.8.4.8.22 0 .4.236.4.525 0 .288.36.911.8 1.383.44.472.8 1.055.8 1.295 0 .6 1.183 2.837 1.856 3.51.303.303.449.717.324.919-.125.203-.037.368.196.368s.424.193.424.428.54 1.213 1.2 2.172c.66.959 1.2 1.897 1.2 2.084 0 .187.36.599.8.916.44.317.8.857.8 1.2 0 .343.36.883.8 1.2.44.317.8.857.8 1.2 0 .343.36.883.8 1.2.44.317.8.809.8 1.092 0 .283.54 1.08 1.2 1.771.66.691 1.2 1.459 1.2 1.708 0 .249.36.712.8 1.029.44.317.8.825.8 1.128 0 .303.508 1.028 1.129 1.612.621.583 1.472 1.6 1.891 2.26.418.66.99 1.344 1.27 1.52.281.176.802.883 1.158 1.572.356.689 1.526 2.109 2.6 3.155 1.073 1.045 1.952 2.083 1.952 2.306 0 .423 8.005 8.522 9.632 9.747.512.385.795.7.628.7-.166 0 1.611 1.89 3.949 4.2 2.339 2.31 4.422 4.2 4.63 4.2.208 0 1.368.99 2.578 2.2 1.21 1.21 2.354 2.2 2.541 2.2.188 0 1.029.63 1.87 1.4.841.77 1.667 1.4 1.837 1.4.17 0 .938.63 1.708 1.4.77.77 1.637 1.4 1.925 1.4.289 0 .785.36 1.102.8.317.44.78.8 1.029.8.249 0 1.017.54 1.708 1.2.691.66 1.488 1.2 1.771 1.2.283 0 .775.36 1.092.8.317.44.857.8 1.2.8.343 0 .883.36 1.2.8.317.44.857.8 1.2.8.343 0 .883.36 1.2.8.317.44.729.8.916.8.187 0 1.125.54 2.084 1.2.959.66 1.937 1.2 2.172 1.2.235 0 .428.18.428.4 0 .22.36.4.8.4.44 0 .8.147.8.326 0 .348 2.558 1.674 3.23 1.674.222 0 .79.36 1.262.8.472.44 1.095.8 1.383.8.289 0 .525.18.525.4 0 .22.36.4.8.4.44 0 .8.18.8.4 0 .22.36.4.8.4.44 0 .8.18.8.4 0 .22.345.4.767.4.421 0 .826.135.9.3.192.432 3.505 2.1 4.171 2.1.309 0 .562.18.562.4 0 .22.45.4 1 .4s1 .18 1 .4c0 .22.36.4.8.4.44 0 .8.18.8.4 0 .22.36.4.8.4.44 0 .8.18.8.4 0 .22.349.4.776.4.427 0 .888.18 1.024.4.136.22.687.4 1.224.4.537 0 .976.18.976.4 0 .22.272.4.605.4.333 0 .918.159 1.3.353.626.319 1.34.627 3.895 1.685 2.362.978 9.55 3.162 10.406 3.162.547 0 .994.18.994.4 0 .22.63.4 1.4.4.77 0 1.4.18 1.4.4 0 .22.63.4 1.4.4.77 0 1.4.18 1.4.4 0 .22.63.4 1.4.4.77 0 1.4.18 1.4.4 0 .22.709.4 1.576.4.867 0 1.688.18 1.824.4.136.22 1.047.4 2.024.4.977 0 1.776.18 1.776.4 0 .22.72.4 1.6.4.88 0 1.6.18 1.6.4 0 .22.99.4 2.2.4 1.21 0 2.2.18 2.2.4 0 .222 1.067.4 2.4.4s2.4.178 2.4.4c0 .227 1.173.4 2.72.4 1.643 0 2.918.198 3.22.5.389.389 5.905.5 24.86.5s24.471-.111 24.86-.5c.302-.302 1.577-.5 3.22-.5 1.547 0 2.72-.173 2.72-.4 0-.222 1.067-.4 2.4-.4s2.4-.178 2.4-.4c0-.22.99-.4 2.2-.4 1.21 0 2.2-.18 2.2-.4 0-.22.72-.4 1.6-.4.88 0 1.6-.18 1.6-.4 0-.22.799-.4 1.776-.4s1.888-.18 2.024-.4c.136-.22.957-.4 1.824-.4.867 0 1.576-.18 1.576-.4 0-.22.63-.4 1.4-.4.77 0 1.4-.18 1.4-.4 0-.22.63-.4 1.4-.4.77 0 1.4-.18 1.4-.4 0-.22.63-.4 1.4-.4.77 0 1.4-.18 1.4-.4 0-.22.447-.4.994-.4.894 0 8.253-2.252 10.506-3.215.495-.212 1.395-.586 2-.832a28.338 28.338 0 0 0 1.795-.8c.382-.194.967-.353 1.3-.353.333 0 .605-.18.605-.4 0-.22.439-.4.976-.4.537 0 1.088-.18 1.224-.4.136-.22.597-.4 1.024-.4.427 0 .776-.18.776-.4 0-.22.36-.4.8-.4.44 0 .8-.18.8-.4 0-.22.36-.4.8-.4.44 0 .8-.18.8-.4 0-.22.45-.4 1-.4s1-.18 1-.4c0-.22.253-.4.562-.4.666 0 3.979-1.668 4.171-2.1.074-.165.479-.3.9-.3.422 0 .767-.18.767-.4 0-.22.36-.4.8-.4.44 0 .8-.18.8-.4 0-.22.36-.4.8-.4.44 0 .8-.18.8-.4 0-.22.236-.4.525-.4.288 0 .911-.36 1.383-.8.472-.44 1.04-.8 1.262-.8.672 0 3.23-1.326 3.23-1.674 0-.179.36-.326.8-.326.44 0 .8-.18.8-.4 0-.22.193-.4.428-.4s1.213-.54 2.172-1.2c.959-.66 1.897-1.2 2.084-1.2.187 0 .599-.36.916-.8.317-.44.857-.8 1.2-.8.343 0 .883-.36 1.2-.8.317-.44.857-.8 1.2-.8.343 0 .883-.36 1.2-.8.317-.44.809-.8 1.092-.8.283 0 1.08-.54 1.771-1.2.691-.66 1.459-1.2 1.708-1.2.249 0 .712-.36 1.029-.8.317-.44.813-.8 1.102-.8.288 0 1.155-.63 1.925-1.4.77-.77 1.538-1.4 1.708-1.4.17 0 .996-.63 1.837-1.4.841-.77 1.682-1.4 1.87-1.4.187 0 1.331-.99 2.541-2.2 1.21-1.21 2.374-2.2 2.588-2.2.213 0 2.332-1.97 4.708-4.379 5.237-5.307 4.435-4.505 9.742-9.742 2.409-2.376 4.379-4.495 4.379-4.708 0-.214.99-1.378 2.2-2.588 1.21-1.21 2.2-2.354 2.2-2.541 0-.188.63-1.029 1.4-1.87.77-.841 1.4-1.667 1.4-1.837 0-.17.63-.938 1.4-1.708.77-.77 1.4-1.637 1.4-1.925 0-.289.36-.785.8-1.102.44-.317.8-.78.8-1.029 0-.249.54-1.017 1.2-1.708.66-.691 1.2-1.488 1.2-1.771 0-.283.36-.775.8-1.092.44-.317.8-.857.8-1.2 0-.343.36-.883.8-1.2.44-.317.8-.857.8-1.2 0-.343.36-.883.8-1.2.44-.317.8-.729.8-.916 0-.187.54-1.125 1.2-2.084.66-.959 1.2-1.937 1.2-2.172 0-.235.18-.428.4-.428.22 0 .4-.36.4-.8 0-.44.147-.8.326-.8.348 0 1.674-2.558 1.674-3.23 0-.222.36-.79.8-1.262.44-.472.8-1.095.8-1.383 0-.289.18-.525.4-.525.22 0 .4-.36.4-.8 0-.44.18-.8.4-.8.22 0 .4-.36.4-.8 0-.44.18-.8.4-.8.22 0 .4-.345.4-.767 0-.421.135-.826.3-.9.432-.192 2.1-3.505 2.1-4.171 0-.309.18-.562.4-.562.22 0 .4-.45.4-1s.18-1 .4-1c.22 0 .4-.36.4-.8 0-.44.18-.8.4-.8.22 0 .4-.36.4-.8 0-.44.18-.8.4-.8.22 0 .4-.349.4-.776 0-.427.18-.888.4-1.024.22-.136.4-.687.4-1.224 0-.537.18-.976.4-.976.22 0 .4-.272.4-.605 0-.333.159-.918.353-1.3.195-.382.555-1.19.8-1.795.246-.605.62-1.505.832-2 .963-2.253 3.215-9.612 3.215-10.506 0-.547.18-.994.4-.994.22 0 .4-.63.4-1.4 0-.77.18-1.4.4-1.4.22 0 .4-.63.4-1.4 0-.77.18-1.4.4-1.4.22 0 .4-.63.4-1.4 0-.77.18-1.4.4-1.4.22 0 .4-.709.4-1.576 0-.867.18-1.688.4-1.824.22-.136.4-1.047.4-2.024 0-.977.18-1.776.4-1.776.22 0 .4-.72.4-1.6 0-.88.18-1.6.4-1.6.22 0 .4-.99.4-2.2 0-1.21.18-2.2.4-2.2.222 0 .4-1.067.4-2.4s.178-2.4.4-2.4c.227 0 .4-1.173.4-2.72 0-1.643.198-2.918.5-3.22.729-.729.729-48.991 0-49.72-.302-.302-.5-1.577-.5-3.22 0-1.547-.173-2.72-.4-2.72-.222 0-.4-1.067-.4-2.4s-.178-2.4-.4-2.4c-.22 0-.4-.99-.4-2.2 0-1.21-.18-2.2-.4-2.2-.22 0-.4-.72-.4-1.6 0-.88-.18-1.6-.4-1.6-.22 0-.4-.799-.4-1.776s-.18-1.888-.4-2.024c-.22-.136-.4-.957-.4-1.824 0-.867-.18-1.576-.4-1.576-.22 0-.4-.63-.4-1.4 0-.77-.18-1.4-.4-1.4-.22 0-.4-.63-.4-1.4 0-.77-.18-1.4-.4-1.4-.22 0-.4-.63-.4-1.4 0-.77-.18-1.4-.4-1.4-.22 0-.4-.447-.4-.994 0-.856-2.184-8.044-3.162-10.406-1.058-2.555-1.366-3.269-1.685-3.895-.194-.382-.353-.967-.353-1.3 0-.333-.18-.605-.4-.605-.22 0-.4-.439-.4-.976 0-.537-.18-1.088-.4-1.224-.22-.136-.4-.597-.4-1.024 0-.427-.18-.776-.4-.776-.22 0-.4-.36-.4-.8 0-.44-.18-.8-.4-.8-.22 0-.4-.36-.4-.8 0-.44-.18-.8-.4-.8-.22 0-.4-.45-.4-1s-.18-1-.4-1c-.22 0-.4-.253-.4-.562 0-.666-1.668-3.979-2.1-4.171-.165-.074-.3-.479-.3-.9 0-.422-.18-.767-.4-.767-.22 0-.4-.36-.4-.8 0-.44-.18-.8-.4-.8-.22 0-.4-.36-.4-.8 0-.44-.18-.8-.4-.8-.22 0-.4-.236-.4-.525 0-.288-.36-.911-.8-1.383-.44-.472-.8-1.04-.8-1.262 0-.672-1.326-3.23-1.674-3.23-.179 0-.326-.36-.326-.8 0-.44-.18-.8-.4-.8-.22 0-.4-.193-.4-.428s-.54-1.213-1.2-2.172c-.66-.959-1.2-1.897-1.2-2.084 0-.187-.36-.599-.8-.916-.44-.317-.8-.857-.8-1.2 0-.343-.36-.883-.8-1.2-.44-.317-.8-.857-.8-1.2 0-.343-.36-.883-.8-1.2-.44-.317-.8-.809-.8-1.092 0-.283-.54-1.08-1.2-1.771-.66-.691-1.2-1.459-1.2-1.708 0-.249-.36-.712-.8-1.029-.44-.317-.8-.813-.8-1.102 0-.288-.63-1.155-1.4-1.925-.77-.77-1.4-1.538-1.4-1.708 0-.17-.63-.996-1.4-1.837-.77-.841-1.4-1.682-1.4-1.87 0-.187-.99-1.331-2.2-2.541-1.21-1.21-2.2-2.37-2.2-2.578 0-.208-1.89-2.291-4.2-4.63-2.31-2.338-4.2-4.115-4.2-3.949 0 .167-.315-.116-.7-.628-1.225-1.627-9.324-9.632-9.747-9.632-.223 0-1.261-.879-2.306-1.952-1.046-1.074-2.466-2.244-3.155-2.6-.689-.356-1.396-.877-1.572-1.158-.176-.28-.86-.852-1.52-1.27-.66-.419-1.677-1.27-2.26-1.891-.584-.621-1.309-1.129-1.612-1.129-.303 0-.811-.36-1.128-.8-.317-.44-.78-.8-1.029-.8-.249 0-1.017-.54-1.708-1.2-.691-.66-1.488-1.2-1.771-1.2-.283 0-.775-.36-1.092-.8-.317-.44-.857-.8-1.2-.8-.343 0-.883-.36-1.2-.8-.317-.44-.857-.8-1.2-.8-.343 0-.883-.36-1.2-.8-.317-.44-.729-.8-.916-.8-.187 0-1.125-.54-2.084-1.2-.959-.66-1.937-1.2-2.172-1.2a.428.428 0 0 1-.428-.424c0-.233-.165-.321-.368-.196-.202.125-.616-.021-.919-.324-.673-.673-2.91-1.856-3.51-1.856-.24 0-.823-.36-1.295-.8-.472-.44-1.095-.8-1.383-.8-.289 0-.525-.18-.525-.4 0-.22-.36-.4-.8-.4-.44 0-.8-.18-.8-.4 0-.22-.36-.4-.8-.4-.44 0-.8-.18-.8-.4 0-.22-.345-.4-.767-.4-.421 0-.826-.135-.9-.3-.192-.432-3.505-2.1-4.171-2.1-.309 0-.562-.18-.562-.4 0-.22-.45-.4-1-.4s-1-.18-1-.4c0-.22-.36-.4-.8-.4-.44 0-.8-.18-.8-.4 0-.22-.36-.4-.8-.4-.44 0-.8-.18-.8-.4 0-.22-.349-.4-.776-.4-.427 0-.888-.18-1.024-.4-.136-.22-.687-.4-1.224-.4-.537 0-.976-.18-.976-.4 0-.22-.272-.4-.605-.4-.333 0-.918-.159-1.3-.353a28.338 28.338 0 0 0-1.795-.8c-.605-.246-1.505-.619-2-.83-1.574-.671-7.273-2.521-7.992-2.596-.38-.039-.815-.195-.967-.346-.151-.151-.784-.275-1.408-.275-.623 0-1.133-.18-1.133-.4 0-.22-.63-.4-1.4-.4-.77 0-1.4-.18-1.4-.4 0-.22-.63-.4-1.4-.4-.77 0-1.4-.18-1.4-.4 0-.22-.63-.4-1.4-.4-.77 0-1.4-.18-1.4-.4 0-.22-.709-.4-1.576-.4-.867 0-1.688-.18-1.824-.4-.136-.22-1.047-.4-2.024-.4-.977 0-1.776-.18-1.776-.4 0-.22-.72-.4-1.6-.4-.88 0-1.6-.18-1.6-.4 0-.22-.99-.4-2.2-.4-1.21 0-2.2-.18-2.2-.4 0-.222-1.067-.4-2.4-.4s-2.4-.178-2.4-.4c0-.227-1.173-.4-2.72-.4-1.597 0-2.92-.2-3.205-.485-.481-.481-37.015-.831-45.872-.44M216.6 63.152c1.76.233 3.83.525 4.6.649 3.921.634 6.335 1.082 7.6 1.41.77.2 3.02.739 5 1.198 10.385 2.409 24.762 8.13 33.341 13.269 1.397.837 2.591 1.522 2.651 1.522.266 0 4.729 2.809 8.214 5.171 10.402 7.049 21.3 17.167 29.328 27.229a824.303 824.303 0 0 0 3.281 4.095c1.115 1.362 6.126 8.965 8.243 12.505 2.565 4.29 8.742 16.737 8.742 17.616 0 .106.348.956.774 1.888 2.234 4.898 5.788 17.302 7.189 25.096l.683 3.8 12.977.226c7.236.126 13.596.413 14.377.649 7.607 2.295 12.19 6.768 15.225 14.859 1.093 2.914.499 11.844-.895 13.446-.181.209-.33.624-.33.922 0 1.991-6.099 8.496-9.467 10.098-4.457 2.12-4.752 2.157-18.733 2.385l-13.2.215-.122 1.2c-.479 4.7-5.263 22.291-7.343 27-.243.55-.575 1.36-.738 1.8-2.934 7.937-14.079 27.587-18.179 32.055-.23.251-.688.794-1.018 1.207a368.27 368.27 0 0 1-5.4 6.535c-1.555 1.813-10.39 10.648-12.203 12.203-.77.66-2.389 2.009-3.598 2.998-1.21.989-2.404 1.979-2.654 2.2-6.149 5.426-23.802 15.632-33.645 19.453-.495.192-1.305.524-1.8.737-5.644 2.435-21.286 6.519-28.9 7.547-9.321 1.258-11.134 1.348-22.8 1.139-11.67-.21-13.422-.343-21.4-1.617-7.563-1.209-21.514-5.119-26.696-7.483-.932-.426-1.782-.774-1.888-.774-.879 0-13.326-6.177-17.616-8.742-3.54-2.117-11.143-7.128-12.505-8.243a824.303 824.303 0 0 0-4.095-3.281c-10.062-8.028-20.18-18.926-27.229-29.328-2.362-3.485-5.171-7.948-5.171-8.214 0-.06-.685-1.254-1.522-2.651-5.139-8.579-10.86-22.956-13.269-33.341-.459-1.98-1.001-4.23-1.204-5-.203-.77-.57-2.66-.815-4.2-.244-1.54-.606-3.7-.804-4.8-.787-4.386-.946-7.709-.946-19.8 0-12.091.159-15.414.946-19.8.198-1.1.56-3.26.804-4.8.245-1.54.609-3.43.809-4.2.2-.77.825-3.29 1.389-5.6 1.726-7.066 4.545-15.273 7.284-21.2 2.459-5.321 4.403-9.18 5.812-11.541.834-1.397 1.516-2.624 1.516-2.725 0-.709 10.098-15.261 11.195-16.134.138-.11.527-.604.864-1.097 2.622-3.841 15.803-17.022 19.644-19.644.493-.337.987-.726 1.097-.864.873-1.097 15.425-11.195 16.134-11.195.101 0 1.328-.682 2.725-1.516 2.445-1.459 6.441-3.466 11.941-5.997 5.615-2.583 15.084-5.79 21.6-7.316 1.87-.438 4.03-.963 4.8-1.166.77-.203 2.66-.566 4.2-.807 1.54-.241 3.568-.608 4.506-.818.938-.209 2.648-.401 3.8-.427 1.152-.026 2.634-.19 3.294-.363 1.687-.444 25.727-.15 29.6.362m6.053 104.882c-5.496 1.89-7.707 5.388-8.195 12.966l-.258 4-1.782.564c-5.691 1.8-5.671 8.236.032 10.163l1.75.592.2 15.94c.215 17.108.176 16.808 2.403 18.682 2.882 2.425 9.597.843 9.597-2.261 0-.348.18-.744.4-.88.256-.158.4-5.937.4-16.024V196h3.151c5.322 0 7.649-1.603 7.649-5.268 0-3.766-1.436-4.85-6.8-5.132l-3.8-.2-.12-2.521c-.151-3.2 1.241-4.875 4.062-4.885 5.338-.019 8.337-4.041 6.182-8.29-1.287-2.537-9.628-3.473-14.871-1.67m-95.548 16.352c-16.557 3.024-24.906 19.294-18.037 35.151.396.915.858 1.663 1.026 1.663.168 0 .306.191.306.423 0 .435 1.975 3.094 3.4 4.579 7.991 8.323 24.956 8.935 33.217 1.198 5.278-4.943.069-12.558-6.017-8.798-5.703 3.523-9.374 4.216-13.785 2.604-10.273-3.756-10.739-20.405-.702-25.123 1.992-.936 7.166-1.255 8.592-.53a61.69 61.69 0 0 0 1.895.9c.66.3 1.29.644 1.4.764 3.614 3.948 10.804 1.486 10.799-3.697-.007-5.72-12.501-10.886-22.094-9.134m134.768.238c-5.268 1.181-9.614 3.831-12.873 7.849-1.654 2.04-4.169 6.933-4.187 8.147-.007.451-.233 1.04-.501 1.308-.822.822-.639 11.795.238 14.272 3.882 10.967 11.84 16.6 23.45 16.6 6.156 0 11.669-1.702 15.118-4.669.595-.511 1.188-.93 1.318-.931.527-.001 1.164-2.155 1.164-3.94 0-4.156-4.184-5.805-8.275-3.262-8.594 5.343-20.013 2.181-20.625-5.71l-.1-1.288 14.4-.2c16.832-.234 17.186-.329 17.895-4.8 2.197-13.85-12.561-26.616-27.022-23.376m-88.273.025c-11.065 1.388-15.546 4.983-12.33 9.89 1.562 2.382 3.619 2.701 9.13 1.416 8.947-2.085 15.484.417 16.88 6.462.61 2.646.244 3.021-2.341 2.394-11.824-2.866-23.563-.098-26.504 6.25-3.348 7.227-1.719 14.942 3.965 18.787 6.825 4.616 18.286 3.647 23.288-1.97.819-.92 1.912-.636 1.912.496 0 4.733 9.191 5.225 11.381.609 1.181-2.487.718-29.404-.566-32.983-3.1-8.635-12.432-12.904-24.815-11.351m97.689 10.699c1.818 1.008 4.706 4.398 4.709 5.528.001.372.182.788.402.924.22.136.4.867.4 1.624v1.376h-10.176c-11.175 0-10.826.085-9.999-2.428 1.003-3.046 1.06-3.172 1.422-3.172.194 0 .353-.19.353-.422 0-3.322 8.84-5.675 12.889-3.43M183.2 211.389c.77.146 1.76.417 2.2.602.44.185 1.115.437 1.5.56 2.621.838-1.151 10.249-4.108 10.249-.348 0-.803.151-1.012.336-.699.617-4.886 1.376-6.04 1.094a63.723 63.723 0 0 0-2.293-.507c-2.393-.475-4.247-3.002-4.247-5.785 0-3.647 1.165-4.983 5.8-6.651 1.218-.438 5.648-.383 8.2.102"/><path fill="#f4858c" d="M187 62.817c-.732.197-.031.236 1.8.101 1.65-.122 3.075-.289 3.167-.37.31-.276-3.759-.055-4.967.269m21.033-.269c.092.081 1.517.251 3.167.377 1.846.141 2.615.1 2-.108-.974-.328-5.499-.564-5.167-.269M180.2 63.6l-.8.344.8-.019c.44-.011 1.34-.157 2-.325l1.2-.305-1.2-.02c-.66-.01-1.56.136-2 .325m37.6 0c.66.168 1.56.314 2 .325l.8.019-.8-.344c-.44-.189-1.34-.335-2-.325l-1.2.02 1.2.305m-42.6.8c-.792.254-.833.32-.2.32.44 0 1.25-.144 1.8-.32.792-.254.833-.32.2-.32-.44 0-1.25.144-1.8.32m48 0c.55.176 1.36.32 1.8.32.633 0 .592-.066-.2-.32-.55-.176-1.36-.32-1.8-.32-.633 0-.592.066.2.32m-52 .8c-.795.514.204.514 1.4 0l.8-.344-.8-.022c-.44-.012-1.07.153-1.4.366m56.2 0c1.196.514 2.195.514 1.4 0-.33-.213-.96-.378-1.4-.366l-.8.022.8.344m-59.6.8c-.504.217-.578.344-.2.344.33 0 .96-.155 1.4-.344.504-.217.578-.344.2-.344-.33 0-.96.155-1.4.344m63.2 0c.44.189 1.07.344 1.4.344.378 0 .304-.127-.2-.344-.44-.189-1.07-.344-1.4-.344-.378 0-.304.127.2.344m-66.6.8c-.804.257-.843.323-.2.332.44.006 1.16-.143 1.6-.332 1.019-.438-.032-.438-1.4 0m-2.8.8c-.824.264-.859.326-.2.354.44.019 1.07-.141 1.4-.354.701-.453.214-.453-1.2 0m75.8 0c.44.189 1.07.344 1.4.344.378 0 .304-.127-.2-.344-.44-.189-1.07-.344-1.4-.344-.378 0-.304.127.2.344m-81.906 1.885c-1.049.35-1.834.709-1.744.798.182.182 4.25-1.089 4.25-1.329 0-.247-.479-.145-2.506.531m88.706.266c1.399.605 3.4 1.136 3.4.903 0-.187-3.789-1.462-4.275-1.438-.179.008.215.249.875.535m-94.704 1.936c-1.707.681-3.034 1.308-2.95 1.392.148.148 6.286-2.182 6.621-2.514.396-.393-.772-.036-3.671 1.122M248 70.915c0 .276 5.259 2.359 5.457 2.161.087-.087-.789-.528-1.949-.979a367.77 367.77 0 0 1-2.808-1.101c-.385-.155-.7-.191-.7-.081m-114.9 8.514c-1.495.811-1.404 1.149.1.371.66-.341 1.2-.706 1.2-.81 0-.258-.043-.243-1.3.439m132.5-.45c0 .11.54.48 1.2.821.66.341 1.2.531 1.2.421 0-.11-.54-.48-1.2-.821-.66-.341-1.2-.531-1.2-.421m-139.807 4.877c-2.041 1.353-2.761 2.067-1.167 1.158 1.404-.8 3.275-2.192 2.967-2.205-.114-.005-.924.466-1.8 1.047M272.6 83.08c.22.219 2.38 1.714 4.8 3.323s5.21 3.547 6.2 4.307l1.8 1.381-1.6-1.436c-2.046-1.838-12.626-8.992-11.2-7.575m-151.571 3.928c-1.085.75-2.255 1.657-2.6 2.016-.346.359.586-.188 2.071-1.216 1.485-1.029 2.7-1.946 2.7-2.039 0-.256-.056-.224-2.171 1.239m-5.044 3.824-1.385 1.231 1.288-.85c1.142-.754 2.005-1.613 1.62-1.613-.076 0-.761.554-1.523 1.232m-5.014 4.071-1.171 1.294 1.2-.998c.66-.55 1.275-1.044 1.367-1.099.091-.055.078-.188-.029-.296-.108-.108-.723.387-1.367 1.099m177.6-.206c.644.712 1.259 1.207 1.367 1.099.107-.108.12-.241.029-.296-.092-.055-.707-.549-1.367-1.099l-1.2-.998 1.171 1.294m-184.037 6.009c-2.236 2.142-4.846 4.813-5.8 5.936-.954 1.124-.449.699 1.121-.944a180.985 180.985 0 0 1 6-5.923c1.73-1.615 3.055-2.942 2.945-2.949-.11-.008-2.03 1.738-4.266 3.88m189.778-.847a222.495 222.495 0 0 1 6.4 6.373c1.698 1.778 2.711 2.768 2.249 2.2-1.948-2.397-6.168-6.688-8.961-9.111l-3-2.603 3.312 3.141M94.6 111.2c-.632.66-.981 1.19-.775 1.178.353-.021 2.414-2.378 2.08-2.378-.085 0-.673.54-1.305 1.2m209.4-1.075c0 .069.573.654 1.274 1.3l1.275 1.175-.975-1.278c-.827-1.085-1.574-1.653-1.574-1.197M91.144 115.5c-1.269 1.532-1.725 2.242-1.263 1.965.512-.307 2.288-2.665 2.008-2.665-.091 0-.426.315-.745.7m217.596.416c.493.693 1.104 1.388 1.357 1.544.253.157.057-.283-.437-.976-.493-.693-1.104-1.388-1.357-1.544-.253-.157-.057.283.437.976M88.723 118.7c-.923 1.076-3.185 4.5-2.973 4.5.103 0 1.006-1.17 2.006-2.6 1.783-2.551 2.158-3.288.967-1.9m222.077-.539c0 .382 2.376 3.839 2.638 3.839.11 0-.377-.855-1.084-1.9-1.566-2.317-1.554-2.303-1.554-1.939m3.64 5.616c.462.784 1.003 1.526 1.201 1.648.198.123-.018-.418-.481-1.202-.462-.784-1.003-1.526-1.201-1.648-.198-.123.018.418.481 1.202m-229.794.823c-.355.55-.937 1.495-1.293 2.1l-.648 1.1.805-.974c.95-1.15 2.211-3.226 1.959-3.226-.098 0-.468.45-.823 1m231.703 2c.216.44.685 1.16 1.044 1.6l.651.8-.393-.8c-.216-.44-.685-1.16-1.044-1.6l-.651-.8.393.8M79.4 133.2c-.341.66-.531 1.2-.421 1.2.11 0 .48-.54.821-1.2.341-.66.531-1.2.421-1.2-.11 0-.48.54-.821 1.2m-7.906 16.901c-1.827 4.693-2.768 7.559-2.552 7.775.093.093.529-.966.969-2.354.44-1.387 1.368-3.94 2.061-5.673.693-1.733 1.193-3.217 1.111-3.299-.082-.082-.797 1.516-1.589 3.551M331.848 160.6c.143.66.418 1.47.611 1.8.225.384.259.168.093-.6-.143-.66-.418-1.47-.611-1.8-.225-.384-.259-.168-.093.6m-264.202.667c-.025.367-.15.997-.276 1.4-.218.695-.207.696.227.02.251-.391.376-1.021.276-1.4-.162-.619-.185-.621-.227-.02m-.996 3.583c-.333 1.667-.01 1.99.35.35.152-.691.193-1.341.091-1.442-.102-.102-.3.389-.441 1.092m160.65 2.244a29.38 29.38 0 0 0 3.8 0c1.045-.082.19-.15-1.9-.15s-2.945.068-1.9.15m-161.471 1.135c-.148.586-.191 1.143-.097 1.237.095.094.292-.308.439-.895.148-.586.191-1.143.097-1.237-.095-.094-.292.308-.439.895m156.971-.611c-.438.297-.276.334.6.138 1.471-.329 1.79-.558.767-.55-.422.003-1.037.189-1.367.412m11.978.023c.539.215 1.177.519 1.419.675.243.156.097-.031-.322-.416-.42-.385-1.059-.689-1.419-.675-.415.016-.296.169.322.416m-16.393 2.391L217 171.263l1.288-.85c1.142-.754 2.005-1.613 1.62-1.613-.076 0-.761.554-1.523 1.232m116.083.568c-.006.44.143 1.16.332 1.6.438 1.019.438-.032 0-1.4-.257-.804-.323-.843-.332-.2m-96.31.732c.079.623 0 1.77-.176 2.549-.176.779-.178 1.26-.004 1.068.523-.577.733-2.683.374-3.749-.327-.969-.333-.964-.194.132m-173.085.021c-.15.392-.262 1.013-.248 1.38.017.442.156.341.412-.299.212-.531.324-1.152.248-1.38-.076-.227-.261-.093-.412.299m151.141 1.282c-.373.569-.609 1.103-.525 1.187.084.085.469-.381.855-1.034.862-1.46.604-1.579-.33-.153m-151.992 3.187c-.15.803-.194 1.54-.096 1.638.098.097.301-.479.452-1.282.15-.803.194-1.54.096-1.638-.098-.097-.301.479-.452 1.282M234 177.6c-.533.345-.533.388 0 .388.33 0 .87-.175 1.2-.388.533-.345.533-.388 0-.388-.33 0-.87.175-1.2.388m-20.003 4.082c-.109 1.915-.054 3.338.121 3.162.175-.176.263-1.743.197-3.482l-.122-3.162-.196 3.482m122.322-2.806c.155.152 6.161.332 13.348.4 7.187.068 12.978.034 12.868-.076-.11-.11-6.117-.29-13.348-.4-7.232-.11-13.022-.076-12.868.076m-108.564.936c-.365.557-.591 1.086-.502 1.175.089.089.465-.367.836-1.013.825-1.438.58-1.557-.334-.162m-164.279.598a8.163 8.163 0 0 0-.23 1.99c.025.718.138.557.403-.573.406-1.732.251-3.002-.173-1.417m304.524.948c0 .087.905.74 2.012 1.45s2.934 2.304 4.062 3.541c1.127 1.238 1.677 1.711 1.221 1.051-1.671-2.421-7.295-7.079-7.295-6.042m-240.175 2.589c-.646.139 1.064.256 3.8.26 3.18.005 4.398-.095 3.375-.277-1.92-.341-5.55-.332-7.175.017m135.598 0c-.648.139.782.253 3.177.253s3.825-.114 3.177-.253c-.647-.139-2.077-.252-3.177-.252s-2.53.113-3.177.252M124 184.818c-.438.297-.276.334.6.138 1.471-.329 1.79-.558.767-.55-.422.003-1.037.189-1.367.412m12.833-.275c.092.078.797.258 1.567.399.985.181 1.222.14.8-.136-.542-.356-2.763-.603-2.367-.263m33.567.259c-.6.193.04.235 1.6.104 1.43-.12 2.675-.283 2.767-.362.322-.279-3.379-.06-4.367.258m11.633-.256c.092.08 1.157.248 2.367.373 1.42.147 1.846.11 1.2-.106-.991-.33-3.887-.548-3.567-.267m77.767.254c-1.019.438.032.438 1.4 0 .804-.257.843-.323.2-.332-.44-.006-1.16.143-1.6.332m12.6 0c1.368.438 2.419.438 1.4 0-.44-.189-1.16-.338-1.6-.332-.643.009-.604.075.2.332m-61.2.818c-.438.297-.276.334.6.138 1.471-.329 1.79-.558.767-.55-.422.003-1.037.189-1.367.412m20-.047c5.535.333 6.984 1.502 6.735 5.431-.074 1.168 0 2.04.165 1.937.674-.419.299-4.217-.532-5.383-1.353-1.901-2.703-2.365-6.648-2.285l-3.52.072 3.8.228m-168.531 1.585c-.148.739-.246 2.177-.218 3.194.045 1.642.09 1.538.406-.929.382-2.977.256-4.487-.188-2.265m146.733-.358c-.399.441-.595.802-.435.802.421 0 1.561-1.205 1.345-1.421-.101-.101-.51.177-.91.619m67.398-.608c0 .104.585.475 1.3.824l1.3.634-1-.815c-.963-.785-1.6-1.041-1.6-.643m-160.815 2.642-1.385 1.231 1.288-.85c1.142-.754 2.005-1.613 1.62-1.613-.076 0-.761.554-1.523 1.232m77.615-.325c0 .365 2.053 2.373 2.238 2.188.085-.084-.384-.669-1.042-1.299-.658-.63-1.196-1.03-1.196-.889m57.775 1.193L250.2 191l1.3-1.175c.715-.646 1.3-1.231 1.3-1.3 0-.309-.33-.037-1.425 1.175m-41.973 4.702c.4.442.809.72.91.619.216-.216-.924-1.421-1.345-1.421-.16 0 .036.361.435.802m37.577.507c-1.052 1.736-1.466 2.792-.974 2.488.217-.134.395-.431.395-.659 0-.228.38-.948.844-1.599.464-.652.769-1.259.679-1.35-.091-.09-.516.414-.944 1.12m131.679.291c.317 1.725.544 2.051.536.767-.003-.532-.183-1.237-.4-1.567-.276-.422-.317-.185-.136.8m-244.858.4c1.101.473 1.492.473 1.2 0-.136-.22-.642-.387-1.124-.372-.845.027-.847.041-.076.372m38.514-.072c-.377.15 1.269.272 3.659.272 2.389 0 4.138-.132 3.886-.294-.571-.365-6.612-.348-7.545.022m88.071.916c-1.438 1.292-1.024 1.133.969-.372.635-.48.988-.872.785-.872-.203 0-.992.56-1.754 1.244m26.015-.766c0 .127.269.746.598 1.376.328.63.592.876.587.546-.006-.33-.275-.949-.598-1.376-.323-.428-.587-.673-.587-.546M214 211.92l.2 15.88.105-15.575c.057-8.567-.033-15.713-.2-15.881-.168-.167-.215 6.842-.105 15.576m-67.2-13.86c-.77.675-1.038 1.045-.596.821.731-.37 2.543-2.103 2.158-2.065-.089.009-.792.569-1.562 1.244m18.1-.984c.385.1 1.015.1 1.4 0 .385-.101.07-.183-.7-.183s-1.085.082-.7.183m18.7-.154c0 .07.563.657 1.25 1.303.875.823 1.097.923.741.334-.44-.726-1.991-2.002-1.991-1.637m-61.223 2.307c-2.198 2.775-3.166 5.699-3.103 9.371l.055 3.2.253-3.6c.277-3.953 1.154-6.394 3.243-9.032.683-.862 1.152-1.568 1.042-1.568-.11 0-.78.733-1.49 1.629m17.223-.862c.963.785 1.6 1.041 1.6.643 0-.104-.585-.475-1.3-.824l-1.3-.634 1 .815m239.714 1.833c.003 1.1.081 1.503.173.895.092-.609.09-1.509-.005-2-.095-.492-.171.005-.168 1.105m-236.609-.717c.497.096 1.217.092 1.6-.008.382-.1-.025-.179-.905-.174-.88.004-1.193.086-.695.182m56.695 14.452c0 8.133.132 14.58.294 14.326.36-.566.329-26.896-.034-28.187-.143-.509-.26 5.728-.26 13.861m88.606-14.102c.003.422.189 1.037.412 1.367.297.438.334.276.138-.6-.329-1.471-.558-1.79-.55-.767m-43.56.434c-.025.257-.162.797-.305 1.2-.201.569-.147.63.238.275.273-.251.41-.791.305-1.2-.105-.408-.212-.532-.238-.275m-57.395 2.433c.195 1.51.115 1.742-.716 2.075l-.935.374.913.026c1.18.032 1.473-.797.943-2.67l-.425-1.505.22 1.7m88.977-.824c.09 1.039.716 1.92.744 1.048.015-.482-.152-.988-.372-1.124-.22-.136-.387-.102-.372.076m12.8 1.757c.016.972.178 2.127.362 2.567.202.483.248-.151.117-1.6-.262-2.89-.518-3.407-.479-.967m-45.445 2.207c-.156 1.672-.127 4.327.066 5.9.315 2.564.351 2.249.351-3.04 0-6.786-.03-6.99-.417-2.86m-136.761-1.218c-.15.803-.184 1.55-.074 1.66.11.11.324-.457.474-1.26.151-.803.184-1.549.074-1.659-.11-.11-.323.456-.474 1.259m64.254-1.082c-.508.143 1.642.26 4.778.26 3.135 0 5.171-.114 4.523-.253-1.552-.333-8.125-.338-9.301-.007m207.978.327a8.132 8.132 0 0 1-.284 1.6c-.218.694-.206.695.226.021.251-.391.379-1.111.285-1.6-.172-.887-.172-.887-.227-.021M166.8 204.4c-.533.345-.533.388 0 .388.33 0 .87-.175 1.2-.388.533-.345.533-.388 0-.388-.33 0-.87.175-1.2.388m16.4 0c.33.213.87.388 1.2.388.533 0 .533-.043 0-.388-.33-.213-.87-.388-1.2-.388-.533 0-.533.043 0 .388m-21.838 2.862-.762.862 1.1-.708c1.134-.73 1.349-1.016.762-1.016-.186 0-.681.388-1.1.862m-98.922 2.771c.022 1.192.192 2.617.377 3.167.208.615.249-.154.108-2-.272-3.567-.541-4.212-.485-1.167m224.762 1.094c-.996 1.05-1.12 1.292-.429.844.825-.536 2.418-2.425 1.976-2.344-.082.016-.778.691-1.547 1.5m-180.734.273c.006.44.156 1.25.332 1.8l.32 1 .012-1c.006-.55-.143-1.36-.332-1.8l-.344-.8.012.8m69.27-.294c-.254.162 1.124.294 3.062.294 1.938 0 3.316-.132 3.062-.294-.254-.162-1.632-.294-3.062-.294s-2.808.132-3.062.294m-55.919 1.895c.156.659.438 1.367.626 1.572.187.205.17-.224-.04-.954-.487-1.701-.961-2.2-.586-.618m50.61.89c-.734.891-1.205 1.898-1.169 2.5.057.965.067.961.228-.106.092-.613.791-1.738 1.553-2.5.762-.762 1.213-1.385 1.001-1.385-.211 0-.937.671-1.613 1.491m99.976-1.099c-11.876.179-13.801.291-13.838.808-.025.345.027.388.124.1.129-.386 3.278-.506 13.838-.528 7.519-.016 14.031-.183 14.471-.372l.8-.344-.8.064c-.44.035-7.008.158-14.595.272m102.976 1.649c-.869.903-2.479 2.253-3.576 3-1.097.748-1.849 1.359-1.672 1.359.616 0 3.677-2.338 5.45-4.164.981-1.01 1.693-1.836 1.581-1.836-.111 0-.913.739-1.783 1.641M156.6 215.6c-.154.91-.189 1.744-.079 1.854.11.11.325-.544.479-1.454.154-.91.189-1.744.079-1.854-.11-.11-.325.544-.479 1.454m-35.8-.074c0 .646 3.627 4.467 4.832 5.091 1.888.976 1.765.655-.273-.717-1.063-.715-2.523-2.079-3.246-3.031-.722-.952-1.313-1.557-1.313-1.343m66.446.941c-.025.367-.15.997-.276 1.4-.218.695-.207.696.227.02.251-.391.376-1.021.276-1.4-.162-.619-.185-.621-.227-.02M63.275 217.8c-.01.66.136 1.56.325 2l.344.8-.019-.8c-.011-.44-.157-1.34-.325-2l-.305-1.2-.02 1.2m78.225.029c-1.483.805-1.41 1.152.08.381 2.305-1.192 5.088-.52 6.785 1.636.459.584.829.903.822.708-.082-2.299-5.156-4.098-7.687-2.725m27.754 1.386c-.033.622.422 1.551 1.175 2.4l1.229 1.385-.993-1.4c-.546-.77-1.074-1.85-1.174-2.4l-.182-1-.055 1.015m111.051-.532c.497.096 1.217.092 1.6-.008.382-.1-.025-.179-.905-.174-.88.004-1.193.086-.695.182m-94.405 1.131c-.999 1.336-.869 1.709.146.419.465-.591.78-1.138.7-1.215-.08-.077-.461.282-.846.796m97.3-.898c0 .074.552.663 1.226 1.308.719.689 1.118.896.966.499-.22-.573-2.192-2.199-2.192-1.807M156.48 220c0 .55.144 1.45.32 2l.32 1v-1c0-.55-.144-1.45-.32-2l-.32-1v1m89.393.279c.465 1.269 3.199 5.087 4.382 6.121l1.145 1-1-1.197c-.55-.658-1.102-1.288-1.226-1.4-.546-.49-2.774-3.986-2.774-4.351 0-.223-.178-.515-.395-.649-.237-.146-.29.045-.132.476m103.341.421c-6.922.061-12.718.244-12.881.406-.162.162 5.712.204 13.054.094 7.341-.11 13.482-.335 13.647-.5.165-.165-.046-.258-.467-.206-.422.052-6.431.144-13.353.206m-220.814.894c.33.217 1.035.397 1.567.4 1.284.008.958-.219-.767-.536-.985-.181-1.222-.14-.8.136m5 .006-1.2.305 1.2.042c.66.022 1.47-.134 1.8-.347.743-.48.087-.48-1.8 0m15.909 1.2c0 .99.078 1.395.173.9a5.661 5.661 0 0 0 0-1.8c-.095-.495-.173-.09-.173.9m34.291-.8c-.55.43-.803.786-.562.791.241.005.764-.351 1.162-.791.912-1.008.688-1.008-.6 0m101.967 1.6c-.121 1.21-.354 2.56-.519 3-.164.44-.008.298.348-.316.416-.719.601-1.788.519-3l-.128-1.884-.22 2.2m-20.967-1.219c.768.348 2.91.575 2.567.272-.092-.081-.887-.257-1.767-.391-1.115-.169-1.358-.133-.8.119m5.6.019-1.2.305 1.2.042c.66.022 1.47-.134 1.8-.347.743-.48.087-.48-1.8 0m-206.12.6c0 .44.144 1.25.32 1.8.254.792.32.833.32.2 0-.44-.144-1.25-.32-1.8-.254-.792-.32-.833-.32-.2m47.06.516c.493.693 1.104 1.388 1.357 1.544.253.157.057-.283-.437-.976-.493-.693-1.104-1.388-1.357-1.544-.253-.157-.057.283.437.976m224.278.702c-.153 1.021-.196 1.937-.096 2.037.1.1.307-.653.46-1.673.153-1.021.196-1.937.096-2.037-.1-.1-.307.653-.46 1.673m-160.48-.124c.588.374 3.025.343 4.033-.052.459-.18-.293-.29-1.862-.272-1.448.016-2.425.162-2.171.324M64.834 227.4c-.012.44.153 1.07.366 1.4.514.795.514-.204 0-1.4l-.344-.8-.022.8m49.966-.053c0 .307 2.855 2.331 3.034 2.152.1-.1-.541-.661-1.426-1.246-.884-.585-1.608-.993-1.608-.906m70.86.488c-.298.34-.458.7-.357.801.1.101.411-.091.689-.426.664-.8 1.102-.771 1.356.09.162.549.188.529.124-.095-.101-.99-1.093-1.192-1.812-.37m148.94.565c-.152.691-.193 1.341-.091 1.442.102.102.3-.389.441-1.092.141-.703.181-1.352.091-1.442-.091-.091-.289.401-.441 1.092m-120.199-.154c-.002.882 2.534 3.712 3.353 3.741.195.007-.141-.376-.745-.852-.605-.475-1.438-1.42-1.853-2.1-.414-.679-.754-1.034-.755-.789m66.699 1.183c-.605.328-1.1.681-1.1.784 0 .386.632.144 1.6-.613 1.189-.93 1.011-.991-.5-.171m-93.5.109c0 .186.388.681.862 1.1l.862.762-.708-1.1c-.73-1.134-1.016-1.349-1.016-.762M65.656 230.8c0 .33.155.96.344 1.4.217.504.344.578.344.2 0-.33-.155-.96-.344-1.4-.217-.504-.344-.578-.344-.2M333.8 232c-.152.691-.193 1.341-.091 1.442.102.102.3-.389.441-1.092.141-.703.181-1.352.091-1.442-.091-.091-.289.401-.441 1.092m-110.995-.127c-.863.375-2 .526-2.979.394-1.042-.139-1.386-.087-1.005.154 1.194.756 5.579-.055 5.579-1.031 0-.228.12-.264-1.595.483M137 232.4c-.504.217-.578.344-.2.344.33 0 .96-.155 1.4-.344.504-.217.578-.344.2-.344-.33 0-.96.155-1.4.344m30.2 0c.33.213.96.378 1.4.366l.8-.022-.8-.344c-1.196-.514-2.195-.514-1.4 0m9.8 0c-.504.217-.578.344-.2.344.33 0 .96-.155 1.4-.344.504-.217.578-.344.2-.344-.33 0-.96.155-1.4.344m14.338.094c.254.162 1.182.294 2.062.294.88 0 1.808-.132 2.062-.294.254-.162-.674-.294-2.062-.294s-2.316.132-2.062.294M261 232.4c.44.189 1.07.344 1.4.344.378 0 .304-.127-.2-.344-.44-.189-1.07-.344-1.4-.344-.378 0-.304.127.2.344m12.8 0c-.504.217-.578.344-.2.344.33 0 .96-.155 1.4-.344.504-.217.578-.344.2-.344-.33 0-.96.155-1.4.344m-144.5.694a29.38 29.38 0 0 0 3.8 0c1.045-.082.19-.15-1.9-.15s-2.945.068-1.9.15m42.4-.018c.385.1 1.015.1 1.4 0 .385-.101.07-.183-.7-.183s-1.085.082-.7.183m94.4.018a29.38 29.38 0 0 0 3.8 0c1.045-.082.19-.15-1.9-.15s-2.945.068-1.9.15M333 235.2c-.152.691-.193 1.341-.091 1.442.102.102.3-.389.441-1.092.141-.703.181-1.352.091-1.442-.091-.091-.289.401-.441 1.092m-265.744 2c0 .33.155.96.344 1.4.217.504.344.578.344.2 0-.33-.155-.96-.344-1.4-.217-.504-.344-.578-.344-.2m264.784 1.44c-.23.833-.346 1.587-.258 1.675.088.088.348-.522.578-1.355.23-.833.346-1.587.258-1.675-.088-.088-.348.522-.578 1.355m-262.824 4.685c-.024.486 1.251 4.275 1.438 4.275.089 0 .039-.495-.111-1.1-.321-1.292-1.305-3.646-1.327-3.175m1.78 5.375c.155.385.651 1.649 1.101 2.808.451 1.16.892 2.036.979 1.949.198-.198-1.885-5.457-2.161-5.457-.11 0-.074.315.081.7m8.404 18.1c.341.66.711 1.2.821 1.2.11 0-.08-.54-.421-1.2-.341-.66-.711-1.2-.821-1.2-.11 0 .08.54.421 1.2m240.014 1.435c-.373.569-.609 1.103-.525 1.187.084.085.469-.381.855-1.034.862-1.46.604-1.579-.33-.153m-2.676 4.465c-2.932 4.567-3.132 4.9-2.946 4.9.099 0 1.143-1.485 2.32-3.3 2.669-4.117 2.778-4.3 2.547-4.3-.103 0-.967 1.215-1.921 2.7m-233.742.1c.853 1.631 6.399 9.597 7.659 11l1.436 1.6-1.381-1.8c-.76-.99-2.698-3.78-4.307-6.2-2.74-4.122-4.156-6.034-3.407-4.6m228.042 8.4c-.79 1.1-1.302 1.997-1.137 1.993.305-.008 3.04-3.993 2.74-3.993-.091 0-.813.9-1.603 2m-216.637 7.4c.55.66 1.044 1.275 1.099 1.367.055.091.188.078.296-.029.108-.108-.387-.723-1.099-1.367l-1.294-1.171.998 1.2m210.599.2c-.632.66-.981 1.19-.775 1.178.353-.021 2.414-2.378 2.08-2.378-.085 0-.673.54-1.305 1.2m-2.396 2.796c-.63.658-1.069 1.26-.975 1.338.094.078.684-.46 1.31-1.196 1.415-1.661 1.206-1.75-.335-.142M99.321 294c2.423 2.793 6.714 7.013 9.111 8.961.568.462-.422-.551-2.2-2.249a222.495 222.495 0 0 1-6.373-6.4L96.718 291l2.603 3m197.847 3.3c-1.667 1.705-2.923 3.1-2.79 3.1.347 0 6.215-5.954 6-6.088-.098-.062-1.542 1.283-3.21 2.988m-5.793 5.6-1.175 1.3 1.398-1.2c.769-.66 1.474-1.245 1.567-1.3.092-.055-.008-.1-.223-.1-.216 0-.921.585-1.567 1.3m-181.353 1.4c.012.165.597.738 1.3 1.274l1.278.975-1.175-1.275c-1.222-1.325-1.44-1.477-1.403-.974m178.549 1.003-1.171 1.294 1.2-.998c.66-.55 1.275-1.044 1.367-1.099.091-.055.078-.188-.029-.296-.108-.108-.723.387-1.367 1.099m-173.631 3c.156.253.851.864 1.544 1.357.693.494 1.133.69.976.437-.156-.253-.851-.864-1.544-1.357-.693-.494-1.133-.69-.976-.437m166.46 2.576c-2.416 1.769-2.665 2.215-.4.715 2.436-1.612 2.371-1.56 2.167-1.74-.092-.081-.887.381-1.767 1.025m-163.367.056c.86.698 3.967 2.658 3.967 2.503 0-.262-3.457-2.638-3.839-2.638-.162 0-.219.061-.128.135m4.542 3.024c.122.198.864.739 1.648 1.201.784.463 1.325.679 1.202.481-.122-.198-.864-.739-1.648-1.201-.784-.463-1.325-.679-1.202-.481m151.346 1.976c-3.126 2.058-5.096 3.543-3.521 2.655 1.589-.897 7.2-4.64 7.2-4.804 0-.278.057-.312-3.679 2.149m-147.321.672c.44.359 1.16.828 1.6 1.044l.8.393-.8-.651c-.44-.359-1.16-.828-1.6-1.044l-.8-.393.8.651m141.4 3.029c-.664.543-.731.679-.2.404 1.305-.674 2.028-1.228 1.6-1.225-.22.002-.85.371-1.4.821m-108 12.305c.33.193 1.14.468 1.8.611.768.166.984.132.6-.093-.33-.193-1.14-.468-1.8-.611-.768-.166-.984-.132-.6.093m78.456.118c-.739.213-1.269.461-1.177.553.202.202 3.121-.575 3.121-.831 0-.235-.318-.19-1.944.278M234.6 333.2c-1.019.438.032.438 1.4 0 .804-.257.843-.323.2-.332-.44-.006-1.16.143-1.6.332m-3.2.8c-1.019.438.032.438 1.4 0 .804-.257.843-.323.2-.332-.44-.006-1.16.143-1.6.332m-60.6.8c1.368.438 2.419.438 1.4 0-.44-.189-1.16-.338-1.6-.332-.643.009-.604.075.2.332m57 0c-1.019.438.032.438 1.4 0 .804-.257.843-.323.2-.332-.44-.006-1.16.143-1.6.332m-4.4.8c-1.07.272-1.092.305-.2.305.55 0 1.54-.137 2.2-.305 1.07-.272 1.092-.305.2-.305-.55 0-1.54.137-2.2.305m-43.4.8c.55.176 1.45.317 2 .313.898-.007.878-.039-.2-.313-1.692-.431-3.144-.431-1.8 0m38.2 0c-1.07.272-1.092.305-.2.305.55 0 1.54-.137 2.2-.305 1.07-.272 1.092-.305.2-.305-.55 0-1.54.137-2.2.305m-31.6.823c.88.182 2.32.317 3.2.301 1.567-.03 1.559-.037-.4-.342-2.844-.443-4.988-.412-2.8.041m24-.023c-1.932.265-1.946.276-.4.314.88.022 2.32-.109 3.2-.291 2.042-.422.22-.437-2.8-.023"/><path fill="#f49ca4" d="M102.585 102.9 100.6 105l2.1-1.985c1.951-1.844 2.283-2.215 1.985-2.215-.063 0-1.008.945-2.1 2.1m77.115 81.376c.385.1 1.015.1 1.4 0 .385-.101.07-.183-.7-.183s-1.085.082-.7.183m7.593 30.524c0 .77.082 1.085.183.7.1-.385.1-1.015 0-1.4-.101-.385-.183-.07-.183.7m-11.193 9.076c.385.1 1.015.1 1.4 0 .385-.101.07-.183-.7-.183s-1.085.082-.7.183"/><path fill="#f4a4a4" d="M196.9 62.697a85.45 85.45 0 0 0 6.2 0c1.705-.075.31-.136-3.1-.136s-4.805.061-3.1.136m-7 .385a5.661 5.661 0 0 0 1.8 0c.495-.095.09-.173-.9-.173s-1.395.078-.9.173m18.805.001c.497.096 1.217.092 1.6-.008.382-.1-.025-.179-.905-.174-.88.004-1.193.086-.695.182m-23.805.404a8.899 8.899 0 0 0 2.2 0c.605-.092.11-.167-1.1-.167-1.21 0-1.705.075-1.1.167m28 0a8.899 8.899 0 0 0 2.2 0c.605-.092.11-.167-1.1-.167-1.21 0-1.705.075-1.1.167m-33.795.796c.497.096 1.217.092 1.6-.008.382-.1-.025-.179-.905-.174-.88.004-1.193.086-.695.182m40.4 0c.497.096 1.217.092 1.6-.008.382-.1-.025-.179-.905-.174-.88.004-1.193.086-.695.182M232.8 66.8c1.368.438 2.419.438 1.4 0-.44-.189-1.16-.338-1.6-.332-.643.009-.604.075.2.332m49.744 23.509c.316.512 2.656 2.244 2.656 1.966 0-.099-.661-.684-1.468-1.3-.808-.616-1.343-.916-1.188-.666M112.77 93.9l-.97 1.1 1.2-1c.66-.55 1.275-1.045 1.367-1.1.091-.055-.012-.1-.231-.1-.218 0-.833.495-1.366 1.1m174.863.6c.092.055.707.55 1.367 1.1l1.2 1-.97-1.1c-.533-.605-1.148-1.1-1.366-1.1-.219 0-.322.045-.231.1m-181.046 4.8-2.387 2.5 2.59-2.4c1.425-1.32 2.67-2.445 2.767-2.5.097-.055.006-.1-.203-.1-.208 0-1.453 1.125-2.767 2.5m183.852-2.4c.096.055.981.82 1.967 1.7l1.794 1.6-1.581-1.7c-.87-.935-1.755-1.7-1.967-1.7-.212 0-.308.045-.213.1M99.01 106.79c-1.3 1.314-2.285 2.444-2.187 2.512.097.067 1.242-1.008 2.543-2.39 3.005-3.19 2.763-3.274-.356-.122m202.412.835c.868 1.004 1.659 1.763 1.758 1.687.1-.077-.61-.898-1.577-1.826l-1.759-1.686 1.578 1.825m-207.821 5.373c-.515.55-.862 1.066-.769 1.148.092.082.587-.368 1.098-.999 1.146-1.412.944-1.503-.329-.149m214.296 2.302c.216.275 1.049 1.369 1.849 2.431.799 1.061 1.454 1.798 1.454 1.637 0-.363-3.22-4.568-3.498-4.568-.11 0-.022.225.195.5m15.581 24.895c.366.767.736 1.324.823 1.237.183-.183-1.031-2.632-1.305-2.632-.101 0 .116.628.482 1.395m9.378 25.405c0 .33.155.96.344 1.4.217.504.344.578.344.2 0-.33-.155-.96-.344-1.4-.217-.504-.344-.578-.344-.2M224.4 166.769c-.55.158.98.22 3.4.136 5.802-.202 6.601-.411 1.6-.419-2.2-.003-4.45.124-5 .283m-5 1.979c-.66.41-1.65 1.259-2.2 1.888-.84.958-.738.919.632-.247.897-.764 1.977-1.603 2.4-1.865.422-.263.678-.487.568-.499-.11-.012-.74.313-1.4.723m114.256.052c0 .33.155.96.344 1.4.217.504.344.578.344.2 0-.33-.155-.96-.344-1.4-.217-.504-.344-.578-.344-.2m-95.095 3.863c-.024 1.091.091 1.582.294 1.262.412-.649.431-1.97.039-2.587-.162-.253-.312.343-.333 1.325m95.907-.263c.02 1.039.65 2.746.664 1.8.006-.44-.143-1.16-.332-1.6-.211-.49-.339-.568-.332-.2m-96.779 3.206c-.821 1.314-2.56 2.184-4.871 2.435l-2.218.241 1.92.059c2.405.074 6.753-2.402 5.833-3.321-.101-.101-.4.163-.664.586m-23.44.609a3.854 3.854 0 0 0-.215 1.318c.019.367.193.136.387-.513.377-1.262.244-1.887-.172-.805M64.101 179.8c.004.88.086 1.193.182.695.096-.497.092-1.217-.008-1.6-.1-.382-.179.025-.174.905m278.424-.301c3.479.067 9.059.067 12.4 0 3.341-.067.495-.121-6.325-.121s-9.554.055-6.075.121m23.421 1.517c.74.321 1.46.578 1.6.57.52-.029-1.77-1.158-2.346-1.156-.33.001.006.264.746.586m-152.276 1.656c-.061 1.804-.186 2.095-.97 2.246l-.9.173.913.055c1.123.067 1.383-.548 1.182-2.8l-.155-1.746-.07 2.072m13.691.625L227.4 185l3.101.027 3.102.027-2.979-.143-2.98-.144-.161-1.586-.161-1.587.039 1.703m143.961.758c.836.74 2.096 1.984 2.8 2.766.703.781 1.013 1.051.69.6-1.127-1.571-2.62-3.099-3.812-3.902-.885-.596-.801-.455.322.536M125.6 184c-.792.254-.833.32-.2.32.44 0 1.25-.144 1.8-.32.792-.254.833-.32.2-.32-.44 0-1.25.144-1.8.32m48.4.009c-.99.16.18.198 2.6.086 2.42-.113 4.475-.27 4.567-.35.282-.246-5.261-.042-7.167.264m87.4-.009c-1.019.438.032.438 1.4 0 .804-.257.843-.323.2-.332-.44-.006-1.16.143-1.6.332m-198.08 2c0 1.21.075 1.705.167 1.1a8.899 8.899 0 0 0 0-2.2c-.092-.605-.167-.11-.167 1.1m118.78-1.724c.385.1 1.015.1 1.4 0 .385-.101.07-.183-.7-.183s-1.085.082-.7.183m-13.5.524c-1.019.438.032.438 1.4 0 .804-.257.843-.323.2-.332-.44-.006-1.16.143-1.6.332m17.2 0c.44.189 1.07.344 1.4.344.378 0 .304-.127-.2-.344-.44-.189-1.07-.344-1.4-.344-.378 0-.304.127.2.344m23.887 1.5c-.957.935-.973.981-.106.306 1.707-1.33 1.788-1.406 1.505-1.406-.15 0-.78.495-1.399 1.1m26.166-.333c.69.421 1.545 1.18 1.9 1.688.356.508.647.722.647.475 0-.571-2.67-2.93-3.314-2.929-.267.001.078.346.767.766m-92.653.212c0 .11.54.48 1.2.821.66.341 1.2.531 1.2.421 0-.11-.54-.48-1.2-.821-.66-.341-1.2-.531-1.2-.421m-26.507 1.635c-.821.558-1.493 1.101-1.493 1.206 0 .105.72-.285 1.6-.867 1.397-.925 1.87-1.353 1.493-1.353-.059 0-.779.456-1.6 1.014M147.2 189c.746.77 1.447 1.4 1.557 1.4.11 0-.411-.63-1.157-1.4-.746-.77-1.447-1.4-1.557-1.4-.11 0 .411.63 1.157 1.4m13.195.213c-.698 1.683-.339 1.794.454.141.358-.745.514-1.354.349-1.354-.166 0-.527.546-.803 1.213m34.573.387c2.096 2.443 2.517 2.826 1.536 1.4-.454-.66-1.333-1.65-1.954-2.2-.749-.664-.609-.396.418.8m12.881-.985c-.137.358-.224 1.401-.193 2.318.053 1.568.073 1.537.336-.533.298-2.345.259-2.832-.143-1.785m74.534 1.085c.981 1.045 1.836 1.9 1.9 1.9.301 0-.017-.359-1.783-2.017l-1.9-1.783 1.783 1.9m-219.482.9c.004.88.086 1.193.182.695.096-.497.092-1.217-.008-1.6-.1-.382-.179.025-.174.905m175.6 0c.004.88.086 1.193.182.695.096-.497.092-1.217-.008-1.6-.1-.382-.179.025-.174.905m10.476.9c-.836 1.045-1.623 2.087-1.749 2.316-.324.59 1.831-1.8 2.809-3.116 1.363-1.834.564-1.231-1.06.8m-88.952 1.756c-.014.36.29.999.675 1.419.385.419.572.565.416.322-.156-.242-.46-.88-.675-1.419-.247-.618-.4-.737-.416-.322M62.561 200c0 3.41.061 4.805.136 3.1a85.45 85.45 0 0 0 0-6.2c-.075-1.705-.136-.31-.136 3.1m86.367-4.1c-.414 1.328-.403 1.411.102.724.478-.651.809-2.224.468-2.224-.056 0-.313.675-.57 1.5m117.172-1.224c.385.1 1.015.1 1.4 0 .385-.101.07-.183-.7-.183s-1.085.082-.7.183m-3.2.536c-1.339.539-1.089.812.3.328.66-.23 1.2-.491 1.2-.579 0-.237-.487-.156-1.5.251m5.9-.278c0 .103.581.39 1.291.638.71.247 1.115.285.9.084-.456-.427-2.191-.998-2.191-.722m-138.3.542c.385.1 1.015.1 1.4 0 .385-.101.07-.183-.7-.183s-1.085.082-.7.183m44.6.413c.715.089 1.885.089 2.6 0 .715-.088.13-.161-1.3-.161-1.43 0-2.015.073-1.3.161m-49.356.88c-.691.421-1.397 1.006-1.569 1.299-.172.292.039.225.468-.15.43-.376 1.405-.953 2.169-1.285.763-.331 1.118-.608.788-.616-.33-.008-1.165.331-1.856.752m10.688.14c.972.5 2.263 1.241 2.868 1.646.605.405 1.1.64 1.1.522 0-.367-4.541-3.077-5.155-3.077-.319 0 .215.409 1.187.909m34.468-.633c.385.1 1.015.1 1.4 0 .385-.101.07-.183-.7-.183s-1.085.082-.7.183m9.7.095c.66.16 1.605.508 2.1.774.495.266.9.391.9.279 0-.414-2.391-1.423-3.28-1.383-.752.033-.701.094.28.33m32.095-.083.895.164.113 15.074.112 15.074-.008-15.2-.007-15.2-1-.039c-.86-.033-.875-.015-.105.127m14.688.213c-.106.275-.143 7.52-.083 16.1l.11 15.599.095-15.885.095-15.885 3.7-.132 3.7-.132-3.713-.083c-2.668-.06-3.766.058-3.904.418m-62.483.975c.385.1 1.015.1 1.4 0 .385-.101.07-.183-.7-.183s-1.085.082-.7.183m19.934 1.171c.531.686 1.046 1.176 1.145 1.088.098-.088-.336-.649-.966-1.247l-1.144-1.088.965 1.247M378.928 200c0 1.43.073 2.015.161 1.3.089-.715.089-1.885 0-2.6-.088-.715-.161-.13-.161 1.3m-237.682-.363c.519.328 3.883.535 3.521.216-.092-.081-1.046-.241-2.121-.357-1.195-.128-1.739-.074-1.4.141m115.414 3.656c-.385 1.471.01 1.526 10.167 1.407l9.773-.115-9.908-.092-9.907-.093.251-1c.138-.55.162-1 .054-1-.108 0-.302.402-.43.893m-82.56-.202c.825.087 2.175.087 3 0 .825-.086.15-.157-1.5-.157s-2.325.071-1.5.157m-5.3.509c-.792.254-.833.32-.2.32.44 0 1.25-.144 1.8-.32.792-.254.833-.32.2-.32-.44 0-1.25.144-1.8.32m12 0c.55.176 1.36.32 1.8.32.633 0 .592-.066-.2-.32-.55-.176-1.36-.32-1.8-.32-.633 0-.592.066.2.32m108.587 2.346c.011 2.405.079 2.718.37 1.702.213-.74.208-1.933-.013-2.946-.345-1.589-.369-1.507-.357 1.244M186.8 203.933c0 .257-.405.488-.9.513-.741.039-.769.081-.158.238.798.205 1.783-.493 1.331-.944-.15-.15-.273-.063-.273.193m56.252.967c-.322 1.201-.267 6.722.076 7.585.15.377.272-1.378.272-3.9 0-5.006.002-4.989-.348-3.685m-123.252.7c-.152.691-.193 1.341-.091 1.442.102.102.3-.389.441-1.092.333-1.667.01-1.99-.35-.35m-13.658 3c-.001 1.98.066 2.84.15 1.912.084-.928.085-2.548.003-3.6-.083-1.052-.152-.292-.153 1.688m-43.241.8c.004.88.086 1.193.182.695.096-.497.092-1.217-.008-1.6-.1-.382-.179.025-.174.905m56.705 1.233c.003.422.189 1.037.412 1.367.297.438.334.276.138-.6-.329-1.471-.558-1.79-.55-.767m58.294.849a5.661 5.661 0 0 0 1.8 0c.495-.095.09-.173-.9-.173s-1.395.078-.9.173m-3 .394c.385.1 1.015.1 1.4 0 .385-.101.07-.183-.7-.183s-1.085.082-.7.183m6.605.007c.497.096 1.217.092 1.6-.008.382-.1-.025-.179-.905-.174-.88.004-1.193.086-.695.182M63.32 214c0 1.21.075 1.705.167 1.1a8.899 8.899 0 0 0 0-2.2c-.092-.605-.167-.11-.167 1.1m108.28-.764c-.664.543-.731.679-.2.404 1.305-.674 2.028-1.228 1.6-1.225-.22.002-.85.371-1.4.821m14.3-.424c.759.306.911.693.972 2.475l.072 2.113.151-1.931c.16-2.041-.336-3.087-1.444-3.044-.441.018-.36.143.249.387m186.9 1.788c-.972.99-1.677 1.8-1.567 1.8.11 0 .995-.81 1.967-1.8.972-.99 1.677-1.8 1.567-1.8-.11 0-.995.81-1.967 1.8m-115.733-1.133c-.147.146-.264.461-.261.7.004.261.131.236.32-.062.237-.372 3.606-.521 13.694-.605l13.38-.111-13.433-.095c-7.389-.052-13.554.026-13.7.173m-13.439 2.009c-.015.482.152.988.372 1.124.473.292.473-.099 0-1.2-.331-.771-.345-.769-.372.076m-87.5 2.924c0 1.43.073 2.015.161 1.3.089-.715.089-1.885 0-2.6-.088-.715-.161-.13-.161 1.3m-32.213.3c.969.935 1.965 1.7 2.213 1.7.247 0 .005-.297-.539-.66-.544-.364-1.54-1.129-2.212-1.7-.673-.572-.431-.275.538.66m62.485-.567c0 .785-2.414 3.363-3.8 4.059-.803.404-.962.604-.481.606.878.003 4.681-3.717 4.681-4.579 0-.34-.09-.619-.2-.619-.11 0-.2.24-.2.533m-47.6 1.067c-.99.658-1.661 1.197-1.491 1.198.348.002 3.491-2.024 3.491-2.251 0-.255-.158-.172-2 1.053m142.433-1.056c.092.079.707.264 1.367.412.876.196 1.038.159.6-.138-.54-.365-2.368-.62-1.967-.274M64.101 220.2c.004.88.086 1.193.182.695.096-.497.092-1.217-.008-1.6-.1-.382-.179.025-.174.905m220.698-.3c.523.715 1.014 1.3 1.09 1.3.304 0-.688-1.5-1.344-2.033-.432-.351-.335-.071.254.733m-136.131-.3c.234.33.63 1.14.881 1.8l.456 1.2-.229-1.2c-.126-.66-.522-1.47-.88-1.8-.58-.533-.605-.533-.228 0m112.932.976c0 .367 2.344 1.425 3.08 1.39.479-.023.377-.139-.303-.345a12.658 12.658 0 0 1-1.9-.78c-.483-.258-.877-.377-.877-.265m74.48.304c-.264.264-.48.658-.48.876 0 .219.225.094.5-.277.447-.602 1.816-.686 12.9-.782l12.4-.109-12.42-.094c-9.234-.07-12.543.029-12.9.386m-49.971 2.72c0 .99.078 1.395.173.9a5.661 5.661 0 0 0 0-1.8c-.095-.495-.173-.09-.173.9m-39.309-.862c0 .186.388.681.862 1.1l.862.762-.708-1.1c-.73-1.134-1.016-1.349-1.016-.762m-72.7.738c.385.1 1.015.1 1.4 0 .385-.101.07-.183-.7-.183s-1.085.082-.7.183m4.205.007c.497.096 1.217.092 1.6-.008.382-.1-.025-.179-.905-.174-.88.004-1.193.086-.695.182m71.678 3.017c1.658 1.766 2.017 2.084 2.017 1.783 0-.064-.855-.919-1.9-1.9l-1.9-1.783 1.783 1.9m84.667-.05c-.141.703-.181 1.352-.091 1.442.091.091.289-.401.441-1.092.152-.691.193-1.341.091-1.442-.102-.102-.3.389-.441 1.092m-186.875.85-1.175 1.3 1.3-1.175c1.212-1.095 1.484-1.425 1.175-1.425-.069 0-.654.585-1.3 1.3m12.208 1.2c1.658 1.766 2.017 2.084 2.017 1.783 0-.064-.855-.919-1.9-1.9l-1.9-1.783 1.783 1.9m-44.985-.563c.436.515 1.155 1.122 1.598 1.349.849.435.725.301-1.193-1.292-1.155-.959-1.169-.961-.405-.057m70.551.763c-.505.643-.489.653.194.115.664-.522.809-.501 1.354.2.546.702.584.707.357.052-.14-.403-.254-.808-.254-.9 0-.458-1.17-.081-1.651.533m39.88 2.062-1.171 1.438 1.351-1.287c.742-.708 1.269-1.355 1.17-1.438-.098-.083-.706.496-1.35 1.287M281 230c-.66.437-1.02.792-.8.788.401-.006 2.576-1.565 2.2-1.576-.11-.004-.74.351-1.4.788m52.829.229c-.148.586-.191 1.143-.097 1.237.095.094.292-.308.439-.895.148-.586.191-1.143.097-1.237-.095-.094-.292.308-.439.895m-216.229-.45c0 .11.54.48 1.2.821.66.341 1.2.531 1.2.421 0-.11-.54-.48-1.2-.821-.66-.341-1.2-.531-1.2-.421m97.232.118c-.034.528 2.999 2.903 3.706 2.903.23 0-.406-.523-1.414-1.162-1.007-.639-1.929-1.404-2.046-1.7-.154-.385-.224-.396-.246-.041M181.6 231.2c-.77.422-1.256.774-1.08.783.424.022 2.68-1.151 2.68-1.393 0-.262-.023-.253-1.6.61m-115.132 1.4c-.006.44.143 1.16.332 1.6.438 1.019.438-.032 0-1.4-.257-.804-.323-.843-.332-.2m102.032.476c.385.1 1.015.1 1.4 0 .385-.101.07-.183-.7-.183s-1.085.082-.7.183m24.4 0c.385.1 1.015.1 1.4 0 .385-.101.07-.183-.7-.183s-1.085.082-.7.183m-64.6.406a5.661 5.661 0 0 0 1.8 0c.495-.095.09-.173-.9-.173s-1.395.078-.9.173m3.805.005c.609.092 1.509.09 2-.005.492-.095-.005-.171-1.105-.168-1.1.003-1.503.081-.895.173m39.6 0c.609.092 1.509.09 2-.005.492-.095-.005-.171-1.105-.168-1.1.003-1.503.081-.895.173m94.395.007a29.38 29.38 0 0 0 3.8 0c1.045-.082.19-.15-1.9-.15s-2.945.068-1.9.15m56.7 27.706c-.449.88-.726 1.6-.616 1.6.11 0 .567-.72 1.016-1.6.449-.88.726-1.6.616-1.6-.11 0-.567.72-1.016 1.6m-4.848 8.9c-.262.495-.737 1.35-1.056 1.9-.557.959-.553.967.092.2.798-.948 1.917-3 1.636-3-.108 0-.41.405-.672.9m-7.86 11.729c-.495.754-.82 1.371-.723 1.371.278 0 1.935-2.429 1.77-2.594-.082-.082-.553.468-1.047 1.223m-219.117 1.903c.616.807 1.201 1.468 1.3 1.468.278 0-1.454-2.34-1.966-2.656-.25-.155.05.38.666 1.188m3.425 4.132c0 .218.495.833 1.1 1.366l1.1.97-1-1.2c-.55-.66-1.045-1.275-1.1-1.367-.055-.091-.1.012-.1.231m208.589 2.836c-1.294 1.485-1.936 2.34-1.427 1.9 1.021-.881 4.211-4.6 3.946-4.6-.091 0-1.225 1.215-2.519 2.7M96.8 290.652c0 .212.765 1.097 1.7 1.967l1.7 1.581-1.6-1.794c-.88-.986-1.645-1.871-1.7-1.967-.055-.095-.1.001-.1.213m200.114 6.428c-.487.506-.74.92-.562.92.39 0 1.846-1.555 1.612-1.723-.09-.064-.563.297-1.05.803m-189.428 4.523c.928.967 1.749 1.677 1.826 1.577.076-.099-.683-.89-1.687-1.758l-1.825-1.578 1.686 1.759m182.914 1.668c-2.031 1.902-2.162 2.083-.6.827 1.866-1.502 3.73-3.32 3.362-3.281-.089.01-1.332 1.114-2.762 2.454m-175.6 4.431c0 .278 4.205 3.498 4.568 3.498.161 0-.576-.655-1.637-1.454-1.062-.8-2.156-1.633-2.431-1.849-.275-.217-.5-.305-.5-.195m166.811 2.518c-.764.539-1.214.979-1 .978.214-.001.929-.445 1.589-.986 1.541-1.263 1.205-1.259-.589.008m-10.515 7.13c-1.921 1.181-2.458 1.739-.896.931 1.254-.648 2.945-1.855 2.6-1.856-.11 0-.877.416-1.704.925m-9.996 5.477c-.825.436-1.5.881-1.5.991 0 .109.72-.169 1.6-.618.88-.449 1.6-.903 1.6-1.008 0-.262-.003-.261-1.7.635m-122.3.169c0 .274 2.449 1.488 2.632 1.305.087-.087-.47-.457-1.237-.823-.767-.366-1.395-.583-1.395-.482m27 10.204c.44.189 1.07.344 1.4.344.378 0 .304-.127-.2-.344-.44-.189-1.07-.344-1.4-.344-.378 0-.304.127.2.344m3.2.8c.44.189 1.07.344 1.4.344.378 0 .304-.127-.2-.344-.44-.189-1.07-.344-1.4-.344-.378 0-.304.127.2.344m60.8 0c-.504.217-.578.344-.2.344.33 0 .96-.155 1.4-.344.504-.217.578-.344.2-.344-.33 0-.96.155-1.4.344m-57.2.8c.44.189 1.16.338 1.6.332.643-.009.604-.075-.2-.332-1.368-.438-2.419-.438-1.4 0m53.4 0c-.804.257-.843.323-.2.332.44.006 1.16-.143 1.6-.332 1.019-.438-.032-.438-1.4 0m-47.5 1.076c.385.1 1.015.1 1.4 0 .385-.101.07-.183-.7-.183s-1.085.082-.7.183m41.6 0c.385.1 1.015.1 1.4 0 .385-.101.07-.183-.7-.183s-1.085.082-.7.183m-35.8.806a5.661 5.661 0 0 0 1.8 0c.495-.095.09-.173-.9-.173s-1.395.078-.9.173m29.6 0a5.661 5.661 0 0 0 1.8 0c.495-.095.09-.173-.9-.173s-1.395.078-.9.173m-24.4.4a5.661 5.661 0 0 0 1.8 0c.495-.095.09-.173-.9-.173s-1.395.078-.9.173m19.2 0a5.661 5.661 0 0 0 1.8 0c.495-.095.09-.173-.9-.173s-1.395.078-.9.173m-12.4.416c2.035.073 5.365.073 7.4 0s.37-.132-3.7-.132-5.735.059-3.7.132"/></g></svg>