<svg width="36" height="16" viewBox="0 0 36 16" fill="none" xmlns="http://www.w3.org/2000/svg"><rect x="0.583496" y="0.25" width="34.5" height="15.5" rx="1.75" fill="white"></rect><path d="M14.0536 6.14844H12.4652C12.3565 6.14844 12.2641 6.22741 12.2471 6.33471L11.6047 10.4078C11.5919 10.4882 11.6542 10.5606 11.7357 10.5606H12.494C12.6027 10.5606 12.6951 10.4817 12.7121 10.3741L12.8854 9.27556C12.9021 9.16802 12.9948 9.08906 13.1032 9.08906H13.6061C14.6524 9.08906 15.2563 8.58273 15.414 7.57938C15.485 7.14041 15.417 6.79551 15.2114 6.55396C14.9857 6.28872 14.5853 6.14844 14.0536 6.14844ZM14.2369 7.63605C14.15 8.20601 13.7145 8.20601 13.2934 8.20601H13.0538L13.2219 7.14157C13.2319 7.07724 13.2876 7.02986 13.3527 7.02986H13.4625C13.7494 7.02986 14.0199 7.02986 14.1598 7.19337C14.2431 7.29091 14.2687 7.43584 14.2369 7.63605Z" fill="#253B80"></path><path d="M18.8003 7.57154H18.0397C17.9749 7.57154 17.9189 7.61892 17.9089 7.68325L17.8752 7.896L17.822 7.81889C17.6574 7.5799 17.2902 7.5 16.9237 7.5C16.0831 7.5 15.3652 8.13662 15.2254 9.02965C15.1527 9.47512 15.256 9.90108 15.5087 10.1981C15.7405 10.4713 16.0722 10.5851 16.4668 10.5851C17.1441 10.5851 17.5196 10.1496 17.5196 10.1496L17.4857 10.361C17.473 10.4418 17.5352 10.5142 17.6163 10.5142H18.3014C18.4103 10.5142 18.5023 10.4353 18.5195 10.3277L18.9306 7.72436C18.9436 7.64423 18.8816 7.57154 18.8003 7.57154ZM17.74 9.05195C17.6667 9.4865 17.3218 9.77822 16.8819 9.77822C16.661 9.77822 16.4845 9.70738 16.3711 9.57314C16.2587 9.43982 16.216 9.25006 16.2517 9.03871C16.3203 8.60787 16.671 8.30663 17.1041 8.30663C17.3201 8.30663 17.4957 8.3784 17.6114 8.51381C17.7273 8.65061 17.7733 8.84152 17.74 9.05195Z" fill="#253B80"></path><path d="M22.852 7.61328H22.0877C22.0148 7.61328 21.9462 7.64951 21.9049 7.71013L20.8507 9.26301L20.4038 7.77075C20.3757 7.67738 20.2895 7.61328 20.192 7.61328H19.4409C19.3496 7.61328 19.2862 7.70247 19.3152 7.7884L20.1572 10.2592L19.3656 11.3766C19.3034 11.4646 19.3661 11.5856 19.4736 11.5856H20.237C20.3095 11.5856 20.3773 11.5503 20.4184 11.4908L22.9607 7.82115C23.0216 7.73336 22.9591 7.61328 22.852 7.61328Z" fill="#253B80"></path><path d="M25.415 6.14844H23.8263C23.7178 6.14844 23.6254 6.22741 23.6084 6.33471L22.966 10.4078C22.9532 10.4882 23.0155 10.5606 23.0966 10.5606H23.9118C23.9875 10.5606 24.0523 10.5054 24.0641 10.4301L24.2465 9.27556C24.2632 9.16802 24.3559 9.08906 24.4643 9.08906H24.9669C26.0135 9.08906 26.6171 8.58273 26.7751 7.57938C26.8464 7.14041 26.7778 6.79551 26.5723 6.55396C26.3468 6.28872 25.9466 6.14844 25.415 6.14844ZM25.5982 7.63605C25.5116 8.20601 25.0761 8.20601 24.6548 8.20601H24.4153L24.5837 7.14157C24.5937 7.07724 24.649 7.02986 24.7142 7.02986H24.8241C25.1107 7.02986 25.3815 7.02986 25.5213 7.19337C25.6047 7.29091 25.63 7.43584 25.5982 7.63605Z" fill="#179BD7"></path><path d="M30.1606 7.57154H29.4005C29.3352 7.57154 29.2797 7.61892 29.2699 7.68325L29.2363 7.896L29.1828 7.81889C29.0182 7.5799 28.6512 7.5 28.2847 7.5C27.4442 7.5 26.7265 8.13662 26.5867 9.02965C26.5142 9.47512 26.6171 9.90108 26.8698 10.1981C27.102 10.4713 27.4332 10.5851 27.8278 10.5851C28.5051 10.5851 28.8807 10.1496 28.8807 10.1496L28.8468 10.361C28.834 10.4418 28.8962 10.5142 28.9778 10.5142H29.6627C29.7711 10.5142 29.8636 10.4353 29.8805 10.3277L30.2919 7.72436C30.3044 7.64423 30.2422 7.57154 30.1606 7.57154ZM29.1004 9.05195C29.0275 9.4865 28.6821 9.77822 28.2422 9.77822C28.0218 9.77822 27.8448 9.70738 27.7315 9.57314C27.619 9.43982 27.5768 9.25006 27.6121 9.03871C27.6811 8.60787 28.0313 8.30663 28.4645 8.30663C28.6805 8.30663 28.856 8.3784 28.9717 8.51381C29.0881 8.65061 29.1341 8.84152 29.1004 9.05195Z" fill="#179BD7"></path><path d="M31.0438 6.26039L30.3918 10.4081C30.379 10.4884 30.4413 10.5609 30.5223 10.5609H31.1778C31.2867 10.5609 31.3791 10.4819 31.3959 10.3744L32.0387 6.3015C32.0515 6.22113 31.9893 6.14844 31.9082 6.14844H31.1743C31.1095 6.14867 31.0537 6.19605 31.0438 6.26039Z" fill="#179BD7"></path><path d="M4.99927 11.3342L5.12074 10.5626L4.85016 10.5564H3.55811L4.45602 4.86303C4.4588 4.84584 4.46786 4.82981 4.4811 4.81843C4.49434 4.80705 4.51129 4.80078 4.52894 4.80078H6.70753C7.43078 4.80078 7.9299 4.95128 8.19049 5.24834C8.31266 5.3877 8.39047 5.53332 8.42809 5.69358C8.46758 5.86174 8.46827 6.06264 8.42972 6.30767L8.42693 6.32556V6.48256L8.5491 6.55177C8.65199 6.60636 8.73374 6.66883 8.79645 6.74037C8.90097 6.85952 8.96856 7.01095 8.99712 7.19048C9.02662 7.37513 9.01687 7.59485 8.96856 7.84359C8.91282 8.12974 8.8227 8.37895 8.701 8.58287C8.58905 8.77077 8.44644 8.92661 8.27712 9.04739C8.11547 9.16212 7.9234 9.24922 7.70623 9.30496C7.49581 9.35978 7.25589 9.38741 6.99274 9.38741H6.82319C6.70195 9.38741 6.5842 9.43108 6.49176 9.50935C6.39909 9.58925 6.33777 9.69841 6.31896 9.81779L6.30618 9.88723L6.09158 11.2471L6.08182 11.297C6.07927 11.3128 6.07485 11.3207 6.06835 11.3261C6.06254 11.3309 6.05418 11.3342 6.04605 11.3342H4.99927Z" fill="#253B80"></path><path d="M8.71218 6.375C8.70568 6.41657 8.69824 6.45908 8.68988 6.50274C8.40258 7.97781 7.41966 8.48739 6.16431 8.48739H5.52514C5.37161 8.48739 5.24224 8.59887 5.21832 8.7503L4.89107 10.8258L4.7984 11.4141C4.78284 11.5135 4.85948 11.6031 4.95982 11.6031H6.09347C6.22772 11.6031 6.34175 11.5056 6.36289 11.3732L6.37404 11.3156L6.58748 9.96106L6.60119 9.88674C6.62209 9.75389 6.73636 9.65634 6.87061 9.65634H7.04015C8.1385 9.65634 8.99832 9.21041 9.24963 7.91998C9.35461 7.38091 9.30026 6.93079 9.02248 6.61423C8.9384 6.51877 8.83412 6.43957 8.71218 6.375Z" fill="#179BD7"></path><path d="M8.38228 6.25156C8.33838 6.23879 8.29309 6.22717 8.24664 6.21672C8.19996 6.2065 8.15211 6.19744 8.10287 6.18955C7.93054 6.16168 7.74171 6.14844 7.53942 6.14844H5.83185C5.78982 6.14844 5.74987 6.15796 5.7141 6.17515C5.63536 6.21301 5.57684 6.28756 5.56267 6.37884L5.19942 8.67959L5.18896 8.74671C5.21289 8.59528 5.34226 8.48379 5.49578 8.48379H6.13495C7.39031 8.48379 8.37322 7.97399 8.66053 6.49915C8.66912 6.45548 8.67632 6.41298 8.68282 6.37141C8.61013 6.33285 8.53139 6.29987 8.44662 6.27177C8.42571 6.2648 8.40411 6.25806 8.38228 6.25156Z" fill="#222D65"></path><path d="M5.56642 6.36237C5.58059 6.2711 5.63912 6.19654 5.71785 6.15892C5.75385 6.14173 5.79357 6.13221 5.83561 6.13221H7.54317C7.74547 6.13221 7.93429 6.14544 8.10663 6.17332C8.15587 6.18121 8.20371 6.19027 8.2504 6.20049C8.29685 6.21094 8.34214 6.22255 8.38603 6.23533C8.40787 6.24183 8.42947 6.24857 8.4506 6.2553C8.53538 6.28341 8.61411 6.31662 8.68681 6.35494C8.77228 5.80983 8.68611 5.43868 8.39138 5.10261C8.06645 4.73262 7.48 4.57422 6.72957 4.57422H4.55099C4.3977 4.57422 4.26694 4.6857 4.24325 4.83737L3.33582 10.5892C3.31793 10.703 3.40573 10.8057 3.52046 10.8057H4.86547L5.20317 8.66312L5.56642 6.36237Z" fill="#253B80"></path><rect x="0.583496" y="0.25" width="34.5" height="15.5" rx="1.75" stroke="black" stroke-width="0.5"></rect></svg>